<svg xmlns="http://www.w3.org/2000/svg" width="107" height="230" viewBox="0 0 52.9 79.4">
  <g fill-rule="evenodd">
    <path d="M12.1 65.3s-1-3-1.5-8.5a102.8 102.8 0 0 1 5.5-41 19.5 19.5 0 0 1 5.6-8.2c1.3-1.2 3-2.1 4.8-2.4 1.7-.3 3.6 0 5.1 1 2 1 3.6 2.9 4.8 4.8A45.8 45.8 0 0 1 41 22a90 90 0 0 1 .2 42.7c0 .4-.3.9-.6 1.2a5 5 0 0 1-1.2 1c-1.1.8-2.4 1.2-3.5 1.4a45 45 0 0 1-22.3-1.7l-1-.6c-.5-.4-.5-.7-.5-.7l.6.5 1 .6a49.3 49.3 0 0 0 12.6 1.8c2.7 0 6.1 0 9.3-1 1.1-.2 2.2-.6 3.2-1.2l.9-.8.4-.9a91.4 91.4 0 0 0-.5-42 46 46 0 0 0-4.4-10.5 13 13 0 0 0-4.3-4.4c-1.3-.7-2.8-1-4.2-.8-1.5.3-2.9 1-4 2a18.2 18.2 0 0 0-5.3 7.7c-.6 1.6-1.2 3.2-1.6 4.8a102 102 0 0 0-4.5 35.7c.3 5.4 1 8.4.8 8.5z"/>
    <path d="M16 20.6c0-.2 3 1 7.3 1.4a47.7 47.7 0 0 0 7.4 0c2.4-.1 4.3-.3 5.8-.5l1.7-.2h.7v.1h-.2l-.4.2-1.7.4a45.4 45.4 0 0 1-13.4.8c-4.5-.5-7.4-2-7.3-2.2zM2.7 53.3c.2 0 .5-3.7 5.4-7.2.8-.6 1.8-1.3 3-1.6h1.3c.4.1.7.4 1 .8v1.8a68.9 68.9 0 0 1 .2 8.8 161.1 161.1 0 0 1-.6 9.7l-.8 1-1.2 1a30.9 30.9 0 0 1-6.9 4c-.4.2-.8.3-1.3.3-.2 0-.4 0-.6-.2a.9.9 0 0 1-.3-.5l-.3-2-.2-3a57 57 0 0 1 0-6.7l.7-4.3.4-1.2.1-.3v-.1h.1v.4l-.3 1.3-.4 4.3.1 6.6c0 1 .2 2 .3 2.9 0 .6.1 1.3.3 1.9h.2c.2 0 .6 0 1-.2 1-.3 2-.9 3.2-1.6a31 31 0 0 0 3.3-2.2l1.2-1 .5-.7v-.4a17 17 0 0 0 .2-1.6 77.2 77.2 0 0 0 .4-7.4 202.6 202.6 0 0 0 0-8.8l-.1-1.5-.4-.4h-1c-1 .2-2 .8-2.7 1.4-4.5 3.1-5.7 6.7-5.8 6.7zM50.3 52.9c-.2 0-.6-3.7-5.4-7.2a8.2 8.2 0 0 0-3-1.6h-1.3c-.4.1-.8.4-1 .8l-.1 1.8a68.9 68.9 0 0 0-.1 8.8 161.1 161.1 0 0 0 .6 9.7l.7 1 1.3 1a30.9 30.9 0 0 0 6.9 4c.3.2.8.3 1.3.3.1 0 .3 0 .5-.2.2-.1.4-.3.4-.5l.3-2 .2-3a57 57 0 0 0 0-6.7c-.2-1.8-.5-3.3-.8-4.3 0-.5-.2-1-.3-1.2l-.1-.3v-.1h-.1v.4l.2 1.3a66.4 66.4 0 0 1 .3 11c0 .9 0 1.8-.2 2.8l-.3 1.9H50c-.3 0-.6 0-1-.2a31 31 0 0 1-6.5-3.9l-1.2-1c-.2-.2-.5-.4-.5-.6l-.1-.4a17 17 0 0 1-.2-1.6 77.2 77.2 0 0 1-.3-7.4 202.6 202.6 0 0 1 0-8.8l.1-1.5c0-.2.2-.3.4-.4h.9c1 .2 2 .8 2.8 1.4 4.5 3.1 5.6 6.7 5.8 6.7zM19.8 35.4c.5 0-1.2-2.2 2-5.4 1-1 2.9-2.2 5.3-2.2 2 0 4 .8 5.4 2.2a7.2 7.2 0 0 1 2.1 5.2 7.8 7.8 0 0 1-4.4 7 8 8 0 0 1-6.3 0c-1-.5-1.8-1.2-2.4-1.8-2.6-2.9-1.4-5-1.7-5 .2 0-.2 2.3 2.3 4.7a7 7 0 0 0 5 2 6.3 6.3 0 0 0 4.7-2 7.3 7.3 0 0 0 1.8-5 6.6 6.6 0 0 0-6.5-6.6c-2 0-3.8.9-4.8 1.8-2.8 2.6-2.3 5-2.5 5z"/>
  </g>
</svg>
