<svg xmlns="http://www.w3.org/2000/svg" width="185" height="140" viewBox="0 0 66.15 39.69">
  <path d="M4.3 7.27c0-.25 12.8-.44 28.59-.44 15.78 0 28.58.2 28.58.44s-12.8.43-28.58.43C17.1 7.7 4.3 7.5 4.3 7.27zM4.64 36.92c0-.22 12.8-.4 28.58-.4 15.78 0 28.59.18 28.59.4 0 .23-12.81.42-28.59.42s-28.58-.19-28.58-.42zM3.68 7.53c.23 0 .41 6.5.41 14.5 0 8.01-.18 14.51-.41 14.51-.23 0-.41-6.5-.41-14.5 0-8.01.18-14.51.4-14.51zM62.3 7.49c.2 0 .37 6.54.37 14.6 0 8.07-.17 14.62-.37 14.62-.21 0-.38-6.55-.38-14.61 0-8.07.17-14.61.38-14.61zM28.1 8.08c.11 0 .21 6.22.21 13.87 0 7.66-.1 13.88-.21 13.88-.12 0-.22-6.22-.22-13.88 0-7.65.1-13.87.22-13.87zM37.9 8.05c.12 0 .22 6.2.22 13.84s-.1 13.84-.21 13.84c-.12 0-.22-6.2-.22-13.84s.1-13.84.22-13.84zM26.83 17.3c.04 0 .05 2.03.03 4.75l.63-.01v-4.73c-.38.03-.63-.01-.63-.09 0-.07.26-.12.7-.08v5.15h-.77c-.01-2.93 0-4.98.04-4.98zM38.5 17.27c.04 0 .05 2.02.03 4.73h.63v-4.73c-.38.03-.63-.01-.63-.09 0-.07.26-.12.7-.09v5.16l-.77-.01c-.01-2.92 0-4.97.04-4.97zM48.38 8.01c.2 0 .37 6.32.37 14.1 0 7.78-.16 14.1-.37 14.1-.2 0-.38-6.32-.38-14.1 0-7.78.17-14.1.38-14.1zM17.57 7.97c.2 0 .38 6.31.38 14.1 0 7.77-.17 14.09-.38 14.09-.2 0-.37-6.32-.37-14.1 0-7.78.16-14.1.37-14.1zM52.03 7.95c.11 0 .2 6.32.2 14.1 0 7.78-.09 14.09-.2 14.09-.12 0-.22-6.31-.22-14.1 0-7.77.1-14.09.22-14.09zM13.88 8.1c.12 0 .21 6.25.21 13.96 0 7.71-.09 13.97-.2 13.97-.13 0-.22-6.26-.22-13.97 0-7.7.1-13.96.21-13.96zM.43 38.27c0-.2 14.63-.34 32.66-.34 18.02 0 32.66.15 32.66.34 0 .18-14.64.33-32.66.33-18.03 0-32.66-.15-32.66-.33zM31.18 6.46c-.14 0-.22-.5-.16-1.36a295.68 295.68 0 0 1 4.32-.03 78 78 0 0 1-.01 1.46c-2.4.04-4.01 0-4.01-.1 0-.12 1.56-.16 3.64-.12l-.02-1h-.09c-1.31 0-2.52-.02-3.52-.03.06.69-.02 1.18-.15 1.18z" fill-rule="evenodd"/>
  <path d="M31.87 5.78c0-.07.58-.12 1.28-.12.71 0 1.28.05 1.28.12 0 .07-.57.13-1.28.13-.7 0-1.28-.06-1.28-.13z" fill-rule="evenodd"/>
</svg>
