<svg xmlns="http://www.w3.org/2000/svg" width="160" height="150" viewBox="0 0 52.92 39.69">
  <path d="M.62 30.65c-.14-.12 1.43-3.58 5.64-7.93a62.58 62.58 0 0 1 8.52-7.24A91.57 91.57 0 0 1 34.31 4.7a45.79 45.79 0 0 1 8.11-2.54c.98-.2 2-.34 3.06-.35a4.9 4.9 0 0 1 2.26.42 2.53 2.53 0 0 1 .94.78c.22.3.36.64.42.97.08.46.05.84-.02 1.15-.1.46-.25.85-.41 1.2a13.94 13.94 0 0 1-1.95 2.92 42.88 42.88 0 0 1-3.59 3.8c-11.52 10.47-20.88 15.88-29.7 18.72a33.14 33.14 0 0 1-8.15 1.67c-.94.06-1.63.04-2.14 0a4.85 4.85 0 0 1-.55-.07l-.14-.04-.05-.03.04-.02.14-.01.52-.04a26 26 0 0 0 2.06-.2c2.02-.27 4.51-.8 7.94-2.03 8.7-3.12 17.74-8.55 29.23-19.07a42.8 42.8 0 0 0 3.5-3.73c.69-.85 1.35-1.72 1.82-2.73.15-.32.27-.63.34-.95.03-.23.06-.42.02-.58a.56.56 0 0 0-.1-.23 1.02 1.02 0 0 0-.34-.25c-.54-.28-1.16-.29-1.8-.3-.99 0-1.95.14-2.9.32a46.12 46.12 0 0 0-8 2.47A96.56 96.56 0 0 0 15.35 16.4a67.75 67.75 0 0 0-8.63 6.94c-4.27 4.1-6 7.4-6.1 7.31zM46.8 10.31c.26-.13.85.52 1.32 1.46.48.93.66 1.8.4 1.92-.25.13-.84-.53-1.32-1.46-.47-.93-.65-1.8-.4-1.92zm-5.02 4.84c.25-.13.83.5 1.28 1.4.45.9.61 1.73.36 1.85-.26.13-.83-.5-1.28-1.4-.46-.9-.62-1.72-.36-1.85zm-5.84 4.87c.25-.12.83.52 1.3 1.43.46.92.63 1.77.38 1.9-.26.12-.84-.52-1.3-1.44-.47-.91-.64-1.76-.38-1.89zm-6.3 4.83c.26-.13.81.45 1.23 1.29.42.83.56 1.62.3 1.74-.25.13-.8-.45-1.22-1.28-.42-.84-.56-1.62-.3-1.75zm-6.51 3.69c.25-.13.81.47 1.24 1.33.43.85.58 1.65.32 1.78-.25.12-.81-.47-1.24-1.33-.43-.86-.58-1.66-.32-1.78zm-7.36 2.86c.25-.13.85.54 1.34 1.5.48.95.67 1.83.42 1.96-.26.13-.86-.54-1.34-1.5-.49-.96-.68-1.84-.42-1.96zm-7.23 2.17c.25-.13.84.52 1.3 1.45.47.92.65 1.77.4 1.9-.26.13-.85-.52-1.31-1.44-.47-.93-.65-1.78-.4-1.9zm-4.15 5c-.04-.16 1.17-.12 3.23-.31 1.41-.14 3.13-.38 5.17-.89 5.13-1.27 10.32-3.54 16.9-7.55l1.53-.95c7.93-4.98 12.9-9.28 16.85-13.93a32.51 32.51 0 0 0 3.24-4.46c.33-.55.5-.88.68-1.2l.17-.29a.46.46 0 0 1 .05-.07l.03-.01.02.05-.01.1a9.9 9.9 0 0 1-.6 1.73c-.6 1.3-1.5 2.86-3 4.84-3.7 4.87-8.83 9.52-16.72 14.47l-1.55.95c-6.58 4-12.04 6.22-17.26 7.25-2.1.42-3.9.56-5.35.57-2.13.01-3.37-.24-3.38-.3zM49.95 5.16c.26-.13.84.5 1.3 1.4.46.9.63 1.74.38 1.87-.25.13-.84-.5-1.3-1.4-.46-.9-.63-1.74-.38-1.87zM1.98 34c.26-.13.91.64 1.47 1.72.55 1.08.8 2.06.54 2.2-.25.12-.9-.65-1.46-1.73-.55-1.08-.8-2.06-.55-2.19z" fill-rule="evenodd"/>
</svg>
