<svg xmlns="http://www.w3.org/2000/svg" width="170" height="250" viewBox="0 0 66.15 79.38">
  <defs>
    <pattern id="a" patternTransform="scale(10)" height="1" width="1.5" patternUnits="userSpaceOnUse">
      <rect height="2" width="1" y="-.5"/>
    </pattern>
  </defs>
  <g fill-rule="evenodd">
    <path d="M3.53 12.73c1.18.3-.07-4.86 10.36-8.93C19.25 1.73 26.4.82 35.34 1.12c6.33.2 13.68 1.03 20.2 3.47 2.35.88 4.64 2.03 6.23 3.53.9.87 1.5 1.85 1.74 2.85.13.56.14 1.11.04 1.66-.44 1.78-2.03 3.27-3.86 4.46a32.69 32.69 0 0 1-7.83 3.5 56.68 56.68 0 0 1-19.8 2.72c-6.95-.33-12.26-.88-17.2-2.22a27.2 27.2 0 0 1-6.6-2.65c-4.01-2.35-4.4-4.24-4.6-4.2.09-.01 1.07 1.83 4.93 3.97 1.65.91 3.79 1.78 6.5 2.48 4.87 1.26 10.03 1.73 16.94 2.03a55.6 55.6 0 0 0 19.24-2.76 31.7 31.7 0 0 0 7.54-3.39c1.73-1.14 3.22-2.52 3.58-4.1.1-.48.08-.97-.03-1.47a5.2 5.2 0 0 0-1.56-2.53c-1.42-1.36-3.56-2.43-5.79-3.28C48.78 2.83 41.6 2 35.38 1.76c-8.8-.32-15.77.5-21.04 2.46-9.44 3.5-10.66 8.54-10.8 8.5zM4.45 69.63c.08-.07 1.9 2.26 6.18 4.1a41.7 41.7 0 0 0 8.65 2.5 72.84 72.84 0 0 0 16.95 1.18 50.83 50.83 0 0 0 17.4-3.75 35.46 35.46 0 0 0 6.12-3.12c2.38-1.56 3.27-2.95 3.34-2.91.2.1-.7 1.56-3.1 3.26a32.5 32.5 0 0 1-6.1 3.35 48.85 48.85 0 0 1-17.62 4c-.71.05-1.44.08-2.17.1-1.93.03-3.84-.04-5.66-.16a68.62 68.62 0 0 1-9.3-1.23 39.4 39.4 0 0 1-8.73-2.73c-4.45-2.05-6.1-4.5-5.96-4.6zM63.88 14.24c.33 0 .6 11.81.6 26.37s-.27 26.37-.6 26.37c-.33 0-.6-11.81-.6-26.37s.27-26.37.6-26.37zM3.5 15.57c.28 0 .5 12.04.5 26.88 0 14.83-.22 26.87-.5 26.87-.3 0-.53-12.04-.53-26.87 0-14.84.24-26.88.52-26.88zM38.21 57.1c0-.01-.45.1-1.17-.2a2.28 2.28 0 0 1-1.4-2.24c.04-.54.31-1.12.83-1.54a2.77 2.77 0 0 1 1.9-.58 2.4 2.4 0 0 1 1.59.74c.47.5.63 1.13.58 1.68-.06.63-.4 1.15-.74 1.5-.24.24-.49.4-.73.51-.54.24-.86.13-.86.13 0-.02.34 0 .8-.24.2-.11.42-.28.63-.51.3-.35.6-.84.63-1.4.04-.5-.13-1.06-.55-1.5a2.11 2.11 0 0 0-1.69-.63c-.51.04-1 .22-1.35.5-.46.37-.71.87-.75 1.35a2.12 2.12 0 0 0 1.2 2.09c.62.32 1.08.31 1.08.34z"/>
    <path transform="matrix(.47924 0 0 .53975 96.74 -60.75)" d="M-132.35 237.18l-.01-.03v-.11l.07-.42c.07-.37.2-.9.37-1.59.38-1.4.96-3.34 1.87-5.83a112.2 112.2 0 0 1 9.4-19.46 124.32 124.32 0 0 1 19.27-24.45c16.27-16 32-22.52 32-22.53.12.24-15.4 7.58-31.23 23.3a130.33 130.33 0 0 0-19.17 24.2 125.96 125.96 0 0 0-11.82 24.87l-.53 1.53-.14.4a.91.91 0 0 1-.05.1l-.03.02z" fill="url(#a)"/>
    <path d="M33.06 61.43c-.21-.37.96-1.15 2.7-1.94l.03.04c1.12 1.57 1.75 2.84 1.38 3.06-.39.22-1.08-.86-1.64-2.17l-.01-.03c-1.12.84-2.24 1.42-2.46 1.04z"/>
  </g>
</svg>
