<svg xmlns="http://www.w3.org/2000/svg" width="250" height="220" viewBox="0 0 79.37 58.21">
  <g fill-rule="evenodd">
    <path d="M39.61 46.26c.02-.25-3.57.51-9.06-1.98a18.56 18.56 0 0 1-6.23-4.56A17.73 17.73 0 0 1 20 26.85a16.67 16.67 0 0 1 6.32-11.72 21.19 21.19 0 0 1 11.76-4.43 18.3 18.3 0 0 1 14.82 5.6c3.6 3.82 4.92 8.65 4.55 12.87-.43 4.88-2.99 8.95-5.61 11.71a18.54 18.54 0 0 1-5.54 4.08c-4.14 1.94-6.68 1.16-6.69 1.3 0-.07 2.72.24 6.48-1.66a18.4 18.4 0 0 0 5.27-4.06c2.5-2.74 4.91-6.74 5.26-11.41.31-4.05-1-8.68-4.44-12.28a17.4 17.4 0 0 0-14.04-5.28c-4.24.29-8.22 1.8-11.18 4.18a16.01 16.01 0 0 0-6.1 11.14 17.25 17.25 0 0 0 4 12.45 18.22 18.22 0 0 0 5.94 4.53c5.1 2.47 8.82 2.3 8.81 2.39z"/>
    <path d="M2.34 47.06c0-.25 17-.6 37.96-.8 20.95-.2 37.96-.16 37.96.09 0 .24-17 .6-37.96.8-20.95.19-37.95.15-37.96-.1zM51.94 16.93c-.05.02.5.55.74 1.8a3.78 3.78 0 0 1-1.7 3.95c-.73.46-1.72.63-2.73.34a4.32 4.32 0 0 1-2.47-1.95 3.92 3.92 0 0 1-.47-2.76c.21-1.09.88-1.9 1.63-2.36a4.04 4.04 0 0 1 3.99-.01c.82.47.98 1 1 .99 0 0-.27-.5-1.04-.91a3.7 3.7 0 0 0-1.3-.41 3.96 3.96 0 0 0-2.56.49 3.43 3.43 0 0 0-1.55 2.27 3.73 3.73 0 0 0 .77 3.06c.55.7 1.28 1.2 2.03 1.4.95.29 1.9.12 2.6-.3a3.68 3.68 0 0 0 1.7-3.8c-.19-1.18-.66-1.8-.64-1.8z"/>
    <path d="M45.64 18.58c.02-.1 1.57.16 3.46.55 1.89.4 3.4.79 3.38.88-.02.09-1.57-.16-3.46-.56s-3.4-.79-3.38-.87z"/>
  </g>
</svg>
