<svg xmlns="http://www.w3.org/2000/svg" width="230" height="240" viewBox="0 0 66.15 63.5">
  <path d="M.71 35.03c.14 0-.08 6.53 3.74 15.7a42.43 42.43 0 0 0 2.73 5.48 21.55 21.55 0 0 0 2.39 3.38c.18.22.5.35.87.5.55.23 1.13.37 1.74.51 1.75.39 3.55.6 5.46.77a154.44 154.44 0 0 0 15.4.52 154.1 154.1 0 0 0 15.3-.76c1.87-.2 3.62-.42 5.33-.83.58-.15 1.14-.3 1.65-.52.19-.08.36-.17.5-.27.12-.08.22-.15.27-.23a35.99 35.99 0 0 0 4.96-7.93c4.43-9.45 4.6-16.39 4.74-16.37-.3-.04.31 6.8-4.1 16.66a35.72 35.72 0 0 1-4.96 8.15c-.14.18-.3.3-.45.4a4 4 0 0 1-.63.35c-.58.25-1.18.43-1.78.58-1.76.43-3.55.68-5.43.89a146.38 146.38 0 0 1-15.6.8c-5.4.05-10.4-.09-15.28-.56-1.92-.19-3.76-.41-5.56-.82-.63-.15-1.26-.32-1.87-.56-.4-.15-.82-.36-1.17-.74A21.99 21.99 0 0 1 6.5 56.6a41.82 41.82 0 0 1-2.7-5.6C.04 41.42.85 35.01.72 35.02z" fill-rule="evenodd"/>
  <path d="M.65 35.7c.01-.05.92.25 2.61.55 1.02.18 2.12.34 3.61.52 2.63.3 5.4.54 9.13.76a293.9 293.9 0 0 0 34.38.15c3.49-.19 6.17-.4 8.68-.67 4.11-.45 6.49-1.1 6.5-1.02.05.15-2.34.86-6.46 1.43-2.48.34-5.22.6-8.7.84a250.94 250.94 0 0 1-17.3.54c-6.3-.02-12.16-.32-17.13-.69-3.7-.27-6.55-.56-9.14-.94a46.65 46.65 0 0 1-3.62-.65c-1.69-.38-2.58-.76-2.56-.82zM65.67 35.88c-.02.05-.92-.26-2.62-.56a60.23 60.23 0 0 0-3.61-.53c-2.63-.3-5.4-.55-9.13-.78a289.2 289.2 0 0 0-34.4-.15c-3.48.2-6.17.4-8.67.69-4.12.46-6.5 1.11-6.52 1.04-.04-.16 2.35-.88 6.47-1.46 2.48-.35 5.23-.62 8.7-.85a246.93 246.93 0 0 1 17.32-.56c6.29.02 12.16.33 17.13.7 3.7.28 6.55.58 9.14.96 1.48.22 2.62.43 3.62.66 1.7.4 2.59.78 2.57.84z" fill-rule="evenodd"/>
  <g fill-rule="evenodd">
    <path d="M26.62 49.39c.16 0 .3 2.6.3 5.8 0 3.2-.14 5.8-.3 5.8-.17 0-.3-2.6-.3-5.8 0-3.2.13-5.8.3-5.8zM38.52 49.32c.17 0 .3 2.6.3 5.8 0 3.2-.13 5.8-.3 5.8-.17 0-.3-2.6-.3-5.8 0-3.2.13-5.8.3-5.8zM38.34 49.32c0 .16-2.6.28-5.8.28-3.2 0-5.8-.12-5.8-.28 0-.15 2.6-.28 5.8-.28 3.2 0 5.8.13 5.8.28zM38.44 61.07c0 .16-2.6.29-5.8.29-3.2 0-5.8-.13-5.8-.3 0-.16 2.6-.29 5.8-.29 3.2 0 5.8.13 5.8.3zM40.9 47.79c0 .11-2.6.21-5.8.21-3.2 0-5.8-.1-5.8-.21 0-.12 2.6-.21 5.8-.21 3.2 0 5.8.09 5.8.2zM41.07 47.96c.16 0 .3 2.6.3 5.8 0 3.2-.14 5.8-.3 5.8-.16 0-.29-2.6-.29-5.8 0-3.2.13-5.8.3-5.8zM38.63 60.99c-.04-.07.46-.42 1.11-.79.65-.37 1.21-.62 1.25-.55.04.06-.46.42-1.11.79-.66.37-1.22.62-1.25.55zM38.5 49.22c-.03-.06.48-.39 1.16-.72.67-.34 1.24-.55 1.28-.49.03.07-.49.4-1.16.73-.67.33-1.25.55-1.28.48zM26.7 49.15c-.02-.06.5-.39 1.17-.72.67-.33 1.25-.55 1.28-.48.03.07-.49.4-1.16.72-.67.34-1.25.55-1.28.48z"/>
  </g>
  <path d="M33.89 13.3c.11 0 .2 7.88.2 17.57 0 9.69-.09 17.56-.2 17.56-.11 0-.2-7.87-.2-17.56 0-9.7.09-17.56.2-17.56z" fill-rule="evenodd"/>
</svg>
