<svg xmlns="http://www.w3.org/2000/svg" width="205" height="300" viewBox="0 0 66.1 79.4">
  <g fill-rule="evenodd">
    <path d="M19.8 30c.2-.1 1.2 1.4 2.2 3.4 1 1.9 1.6 3.5 1.3 3.6-.2 0-1.2-1.5-2.1-3.4-1-2-1.6-3.6-1.4-3.6zM20.2 29.8c0-.2 5.9-.3 13.1-.3 7.3 0 13.2.1 13.2.3 0 .2-6 .4-13.2.4a118 118 0 0 1-13.1-.4zM24 37c0-.2 4.1-.4 9.3-.4 5.2 0 9.4.2 9.4.4 0 .1-4.2.3-9.4.3S24 37 24 37zM47 29.9c.2 0-.4 1.7-1.4 3.6-1 2-2 3.5-2.3 3.5-.2-.1.4-1.7 1.4-3.7 1-2 2-3.5 2.3-3.4zM33.7 26.6c.2.1-.2.8-1 1.5-.8.8-1.6 1.3-1.8 1.2-.2-.1.3-.8 1-1.5.9-.8 1.6-1.3 1.8-1.2zM34 26.7c.3-.1 1 .4 1.8 1.1.7.8 1.2 1.4 1 1.5-.2.1-1-.4-1.7-1.1-.8-.8-1.2-1.4-1-1.5z"/>
    <g>
      <path d="M3.9 53.7c0-.1-1 .3-2.2-1-.4-.5-.8-1.3-.6-2.2 0-.7.5-1.4 1.2-1.8a3.3 3.3 0 0 1 2.2-.6c.8.2 1.5.7 1.8 1.2.5.7.6 1.4.5 2-.1 1-.6 1.5-1 2l-.9.4c-.5.2-.8 0-.8 0l.8-.2c.2 0 .4-.2.7-.5.4-.3.8-1 .9-1.7 0-.5-.1-1.2-.5-1.8a2.3 2.3 0 0 0-2-1c-.6 0-1 .2-1.5.5-.6.4-1 1-1 1.6-.2.8 0 1.5.5 2 .8 1 1.9 1 1.9 1.1z"/>
      <path d="M3.7 48.3c0-.2-1 .3-2-1-.6-.5-.9-1.3-.8-2.2.1-.7.5-1.4 1.2-1.9a3.3 3.3 0 0 1 2.3-.5c.8.1 1.4.6 1.8 1.2.5.7.6 1.4.5 2-.2.9-.6 1.5-1 1.9l-.9.5c-.5.2-.8 0-.8 0l.7-.2c.3 0 .5-.2.7-.5.4-.4.8-1 1-1.7 0-.6-.1-1.2-.5-1.8a2.3 2.3 0 0 0-2-1c-.6 0-1.1.2-1.5.5-.6.3-1 1-1 1.5-.2.8 0 1.6.4 2 .9 1 2 1.1 2 1.2z"/>
      <path d="M3.5 42.8c0-.1-1 .3-2-1-.6-.5-.9-1.3-.7-2.2 0-.7.4-1.4 1.1-1.8a3.3 3.3 0 0 1 2.3-.6c.8.2 1.5.7 1.8 1.2.5.7.6 1.4.5 2-.1 1-.6 1.5-1 2l-.9.4c-.5.2-.8 0-.8 0l.8-.2c.2 0 .4-.2.7-.5.4-.3.7-1 .8-1.7.1-.5 0-1.2-.4-1.8a2.3 2.3 0 0 0-2-1c-.6 0-1.1.2-1.5.5-.6.4-1 1-1 1.6-.2.8 0 1.5.5 2 .8 1 1.9 1 1.8 1.1zM9.7 53.7c0-.1-1 .3-2-1-.6-.5-.9-1.3-.8-2.2.1-.7.5-1.4 1.2-1.8a3.3 3.3 0 0 1 2.3-.6c.8.2 1.4.7 1.8 1.2.5.7.6 1.4.5 2-.2 1-.6 1.5-1 2l-.9.4c-.5.2-.8 0-.8 0l.7-.2c.3 0 .5-.2.7-.5.4-.3.8-1 1-1.7 0-.5-.1-1.2-.5-1.8a2.3 2.3 0 0 0-2-1c-.6 0-1.1.2-1.5.5-.6.4-1 1-1 1.6-.2.8 0 1.5.4 2 .9 1 2 1 2 1.1zM62.3 53.6c0-.1-1 .3-2-1-.6-.5-.9-1.3-.8-2.2.1-.7.5-1.4 1.2-1.8A3.3 3.3 0 0 1 63 48c.8.2 1.4.7 1.8 1.2.5.7.6 1.4.5 2-.2.9-.6 1.5-1 2l-.9.4c-.5.2-.8 0-.8 0l.7-.2c.3 0 .5-.2.8-.5.3-.4.7-1 .8-1.7.1-.5 0-1.2-.4-1.8a2.3 2.3 0 0 0-2-1c-.6 0-1.1.2-1.5.5-.6.4-1 1-1 1.6-.2.8 0 1.5.4 2 .9 1 2 1 2 1z"/>
      <path d="M9.6 48.3c0-.2-1 .3-2.1-1-.5-.5-.8-1.3-.7-2.2.1-.7.5-1.4 1.2-1.9a3.3 3.3 0 0 1 2.3-.5c.8.1 1.4.6 1.8 1.2.4.7.6 1.4.5 2-.2.9-.7 1.5-1.1 1.9l-.8.5c-.5.2-.8 0-.8 0l.7-.2c.2 0 .5-.2.7-.5.4-.4.8-1 .9-1.7 0-.6 0-1.2-.5-1.8a2.3 2.3 0 0 0-2-1c-.5 0-1 .2-1.5.5-.6.3-1 1-1 1.5-.1.8.1 1.6.5 2 .8 1 1.9 1.1 1.9 1.2zM62.2 48.2c0-.2-1 .2-2.1-1-.5-.5-.8-1.3-.7-2.2.1-.7.5-1.4 1.2-1.9a3.3 3.3 0 0 1 2.3-.5c.8.1 1.4.6 1.8 1.2.4.6.6 1.4.5 2-.2.9-.6 1.5-1.1 1.9l-.8.5c-.5.1-.8 0-.8 0l.7-.2.7-.5c.4-.4.8-1 .9-1.7 0-.6 0-1.2-.5-1.8a2.3 2.3 0 0 0-2-1c-.5 0-1 .2-1.5.4-.5.4-1 1-1 1.6-.1.8.1 1.6.5 2 .8 1 2 1.1 1.9 1.2z"/>
      <path d="M9.4 42.8c0-.1-1 .3-2.1-1-.5-.5-.8-1.3-.7-2.2.1-.7.5-1.4 1.2-1.8a3.3 3.3 0 0 1 2.3-.6c.8.2 1.4.7 1.8 1.2.4.7.6 1.4.5 2-.2 1-.6 1.5-1 2l-.9.4c-.5.2-.8 0-.8 0l.7-.2c.2 0 .5-.2.7-.5.4-.3.8-1 1-1.7 0-.5-.2-1.2-.6-1.8a2.3 2.3 0 0 0-2-1c-.5 0-1 .2-1.4.5-.6.4-1 1-1 1.6-.2.8 0 1.5.4 2 .9 1 2 1 2 1.1zM62 42.7c0-.1-1 .3-2.1-1-.5-.5-.8-1.3-.7-2.2.1-.7.5-1.4 1.2-1.8a3.3 3.3 0 0 1 2.3-.6c.8.2 1.4.7 1.8 1.2.4.7.6 1.4.5 2-.2.9-.6 1.5-1 2l-.9.4c-.5.2-.8 0-.8 0l.7-.2c.3 0 .5-.2.7-.5.4-.4.8-1 1-1.7 0-.5-.1-1.2-.5-1.8a2.3 2.3 0 0 0-2-1c-.6 0-1.1.2-1.5.5-.6.4-1 1-1 1.6-.2.8 0 1.5.4 2 .9 1 2 1 2 1zM45 53.7c0-.1-1 .3-2.2-1-.4-.5-.8-1.3-.6-2.2 0-.7.5-1.4 1.2-1.8a3.3 3.3 0 0 1 2.3-.6c.7.2 1.4.7 1.7 1.2.5.7.6 1.4.5 2-.1 1-.6 1.5-1 2l-.9.4c-.5.2-.8 0-.8 0l.8-.2c.2 0 .4-.2.7-.5.4-.3.8-1 .9-1.7 0-.5-.1-1.2-.5-1.8a2.3 2.3 0 0 0-2-1c-.6 0-1 .2-1.5.5-.6.4-1 1-1 1.6-.2.8 0 1.5.5 2 .8 1 1.9 1 1.9 1.1z"/>
      <path d="M39.1 53.7c0-.1-1 .3-2.1-1-.5-.5-.8-1.3-.7-2.2.1-.7.5-1.4 1.2-1.8a3.3 3.3 0 0 1 2.3-.6c.8.2 1.4.7 1.8 1.2.4.7.6 1.4.5 2-.2 1-.6 1.5-1 2l-.9.4c-.5.2-.8 0-.8 0l.7-.2c.3 0 .5-.2.7-.5.4-.3.8-1 1-1.7 0-.5-.1-1.2-.5-1.8a2.3 2.3 0 0 0-2-1c-.6 0-1.1.2-1.5.5-.6.4-1 1-1 1.6-.2.8 0 1.5.4 2 .9 1 2 1 2 1.1z"/>
      <path d="M33.2 53.7c0-.1-1 .3-2.1-1-.5-.5-.8-1.3-.7-2.2.1-.7.5-1.4 1.2-1.8A3.3 3.3 0 0 1 34 48c.8.2 1.4.7 1.8 1.2.4.7.6 1.4.5 2-.2 1-.6 1.5-1 2l-.9.4c-.5.2-.8 0-.8 0l.7-.2c.3 0 .5-.2.7-.5.4-.3.8-1 1-1.7 0-.5-.1-1.2-.5-1.8a2.3 2.3 0 0 0-2-1c-.6 0-1.1.2-1.5.5-.6.4-1 1-1 1.6-.2.8 0 1.5.4 2 .9 1 2 1 2 1.1zM21.5 53.7c0-.1-1 .3-2.1-1-.5-.5-.8-1.3-.7-2.2 0-.7.5-1.4 1.2-1.8a3.3 3.3 0 0 1 2.3-.6c.8.2 1.4.7 1.8 1.2.4.7.6 1.4.4 2-.1 1-.6 1.5-1 2l-.8.4c-.6.2-.9 0-.8 0l.7-.2c.2 0 .4-.2.7-.5.4-.3.8-1 .9-1.7 0-.5 0-1.2-.5-1.8a2.3 2.3 0 0 0-2-1c-.6 0-1 .2-1.5.5-.6.4-1 1-1 1.6-.2.8 0 1.5.5 2 .8 1 1.9 1 1.9 1.1zM15.6 53.7c0-.1-1 .3-2-1-.6-.5-.9-1.3-.8-2.2.1-.7.5-1.4 1.2-1.8a3.3 3.3 0 0 1 2.3-.6c.8.2 1.4.7 1.8 1.2.5.7.6 1.4.5 2-.2 1-.6 1.5-1 2l-.9.4c-.5.2-.8 0-.8 0l.7-.2c.3 0 .5-.2.7-.5.4-.3.8-1 1-1.7 0-.5-.1-1.2-.5-1.8a2.3 2.3 0 0 0-2-1c-.6 0-1.1.2-1.5.5-.6.4-1 1-1 1.6-.2.8 0 1.5.4 2 .9 1 2 1 2 1.1zM50.8 53.7c0-.1-1 .3-2.2-1-.4-.5-.8-1.3-.6-2.2 0-.7.5-1.4 1.1-1.8a3.3 3.3 0 0 1 2.3-.6c.8.2 1.5.7 1.8 1.2.5.7.6 1.4.5 2-.1 1-.6 1.5-1 2l-.9.4c-.5.2-.8 0-.8 0l.8-.2c.2 0 .4-.2.7-.5.4-.3.7-1 .9-1.7 0-.5-.1-1.2-.5-1.8a2.3 2.3 0 0 0-2-1c-.6 0-1 .2-1.5.5-.6.4-1 1-1 1.6-.2.8 0 1.5.5 2 .8 1 1.9 1 1.9 1.1z"/>
      <path d="M56.5 53.7c0-.1-1 .3-2-1-.6-.5-.9-1.3-.7-2.2 0-.7.4-1.4 1.1-1.8a3.3 3.3 0 0 1 2.3-.6c.8.2 1.5.7 1.8 1.2.5.7.6 1.4.5 2-.1 1-.6 1.5-1 2l-.9.4c-.5.2-.8 0-.8 0l.8-.2c.2 0 .4-.2.7-.5.4-.3.7-1 .8-1.7.1-.5 0-1.2-.4-1.8a2.3 2.3 0 0 0-2-1c-.6 0-1.1.2-1.5.5-.6.4-1 1-1 1.6-.2.8 0 1.5.5 2 .8 1 1.9 1 1.8 1.1zM27.4 53.7c0-.1-1 .3-2.1-1-.5-.5-.8-1.3-.7-2.2 0-.7.5-1.4 1.2-1.8A3.3 3.3 0 0 1 28 48c.8.2 1.4.7 1.8 1.2.4.7.6 1.4.4 2-.1 1-.6 1.5-1 2l-.8.4c-.6.2-.9 0-.9 0l.8-.2c.2 0 .4-.2.7-.5.4-.3.8-1 .9-1.7 0-.5 0-1.2-.5-1.8a2.3 2.3 0 0 0-2-1c-.6 0-1 .2-1.5.5-.6.4-1 1-1 1.6-.2.8 0 1.5.5 2 .8 1 1.9 1 1.9 1.1zM44.8 48.3c0-.2-1 .3-2-1-.6-.5-.9-1.3-.8-2.2.1-.7.5-1.4 1.2-1.9a3.3 3.3 0 0 1 2.3-.5c.8.1 1.4.6 1.8 1.2.5.7.6 1.4.5 2-.2.9-.6 1.5-1 1.9l-.9.5c-.5.2-.8 0-.8 0l.7-.2c.3 0 .5-.2.7-.5.4-.4.8-1 1-1.7 0-.6-.1-1.2-.5-1.8a2.3 2.3 0 0 0-2-1c-.6 0-1.1.2-1.5.5-.6.3-1 1-1 1.5-.2.8 0 1.6.4 2 .9 1 2 1.1 2 1.2z"/>
      <path d="M39 48.3c0-.2-1 .3-2.1-1-.5-.5-.8-1.3-.7-2.2 0-.7.5-1.4 1.2-1.9a3.3 3.3 0 0 1 2.3-.5c.8.1 1.4.6 1.8 1.2.4.7.6 1.4.4 2-.1.9-.6 1.5-1 1.9l-.8.5c-.6.2-.8 0-.8 0l.7-.2c.2 0 .5-.2.7-.5.4-.4.8-1 .9-1.7 0-.6 0-1.2-.5-1.8a2.3 2.3 0 0 0-2-1c-.5 0-1 .2-1.5.5-.6.3-1 1-1 1.5-.2.8 0 1.6.5 2 .8 1 1.9 1.1 1.9 1.2zM33 48.3c.1-.2-1 .3-2-1-.5-.5-.8-1.3-.7-2.2 0-.7.5-1.4 1.2-1.9a3.3 3.3 0 0 1 2.3-.5c.8.1 1.4.6 1.8 1.2.4.7.6 1.4.4 2-.1.9-.6 1.5-1 1.9l-.8.5c-.6.2-.8 0-.8 0l.7-.2c.2 0 .5-.2.7-.5.4-.4.8-1 .9-1.7 0-.6 0-1.2-.5-1.8a2.3 2.3 0 0 0-2-1c-.5 0-1 .2-1.5.5-.6.3-1 1-1 1.5-.2.8 0 1.6.5 2 .8 1 1.9 1.1 1.9 1.2zM21.3 48.3c0-.2-1 .3-2-1-.6-.5-.9-1.3-.7-2.2 0-.7.4-1.4 1.1-1.9a3.3 3.3 0 0 1 2.3-.5c.8.1 1.5.6 1.8 1.2.5.7.6 1.4.5 2-.2.9-.6 1.5-1 1.9l-.9.5c-.5.2-.8 0-.8 0l.8-.2c.2 0 .4-.2.7-.5.3-.4.7-1 .8-1.7.1-.6 0-1.2-.4-1.8a2.3 2.3 0 0 0-2-1c-.6 0-1.1.2-1.5.5-.6.3-1 1-1 1.5-.2.8 0 1.6.4 2 .9 1 2 1.1 2 1.2z"/>
      <path d="M15.5 48.3c0-.2-1 .3-2.1-1-.5-.5-.8-1.3-.7-2.2.1-.7.5-1.4 1.2-1.9a3.3 3.3 0 0 1 2.3-.5c.8.1 1.4.6 1.8 1.2.4.7.6 1.4.5 2-.2.9-.7 1.5-1.1 1.9l-.8.5c-.5.2-.8 0-.8 0l.7-.2c.2 0 .5-.2.7-.5.4-.4.8-1 .9-1.7 0-.6 0-1.2-.5-1.8a2.3 2.3 0 0 0-2-1c-.5 0-1 .2-1.5.5-.6.3-1 1-1 1.5-.1.8.1 1.6.5 2 .8 1 1.9 1.1 1.9 1.2zM50.6 48.3c0-.2-1 .3-2.1-1-.5-.5-.8-1.3-.7-2.2.1-.7.5-1.4 1.2-1.9a3.3 3.3 0 0 1 2.3-.5c.8.1 1.4.6 1.8 1.2.4.7.6 1.4.5 2-.2.9-.6 1.5-1 1.9l-.9.5c-.5.2-.8 0-.8 0l.7-.2c.3 0 .5-.2.7-.5.4-.4.8-1 1-1.7 0-.6-.1-1.2-.5-1.8a2.3 2.3 0 0 0-2-1c-.6 0-1.1.2-1.5.5-.6.3-1 1-1 1.5-.2.8 0 1.6.4 2 .9 1 2 1.1 2 1.2z"/>
      <path d="M56.4 48.3c0-.2-1 .3-2.1-1-.5-.5-.8-1.3-.7-2.2.1-.7.5-1.4 1.2-1.9a3.3 3.3 0 0 1 2.3-.5c.8.1 1.4.6 1.8 1.2.4.7.6 1.4.5 2-.2.9-.6 1.5-1 1.9l-.9.5c-.5.2-.8 0-.8 0l.7-.2c.2 0 .5-.2.7-.5.4-.4.8-1 1-1.7 0-.6-.2-1.2-.6-1.8a2.3 2.3 0 0 0-2-1c-.5 0-1 .2-1.4.5-.6.3-1 1-1.1 1.5-.1.8.1 1.6.5 2 .9 1 2 1.1 2 1.2zM27.2 48.3c0-.2-1 .3-2-1-.6-.5-.9-1.3-.8-2.2.1-.7.5-1.4 1.2-1.9a3.3 3.3 0 0 1 2.3-.5c.8.1 1.5.6 1.8 1.2.5.7.6 1.4.5 2-.2.9-.6 1.5-1 1.9l-.9.5c-.5.2-.8 0-.8 0l.8-.2c.2 0 .4-.2.7-.5.3-.4.7-1 .8-1.7.1-.6 0-1.2-.4-1.8a2.3 2.3 0 0 0-2-1c-.6 0-1.1.2-1.5.5-.6.3-1 1-1 1.5-.2.8 0 1.6.4 2 .9 1 2 1.1 2 1.2zM44.6 42.8c0-.1-1 .3-2-1-.5-.5-.9-1.3-.7-2.2 0-.7.4-1.4 1.1-1.8a3.3 3.3 0 0 1 2.3-.6c.8.2 1.5.7 1.8 1.2.5.7.6 1.4.5 2-.1 1-.6 1.5-1 2l-.9.4c-.5.2-.8 0-.8 0l.8-.2c.2 0 .4-.2.7-.5.4-.3.7-1 .8-1.7.1-.5 0-1.2-.4-1.8a2.3 2.3 0 0 0-2-1c-.6 0-1.1.2-1.5.5-.6.4-1 1-1 1.6-.2.8 0 1.5.5 2 .8 1 1.9 1 1.8 1.1z"/>
      <path d="M38.8 42.8c0-.1-1 .3-2.1-1-.5-.5-.8-1.3-.7-2.2.1-.7.5-1.4 1.2-1.8a3.3 3.3 0 0 1 2.3-.6c.8.2 1.4.7 1.8 1.2.4.7.6 1.4.5 2-.2 1-.6 1.5-1.1 2l-.8.4c-.5.2-.8 0-.8 0l.7-.2c.2 0 .5-.2.7-.5.4-.3.8-1 .9-1.7 0-.5 0-1.2-.5-1.8a2.3 2.3 0 0 0-2-1c-.5 0-1 .2-1.5.5-.5.4-1 1-1 1.6-.1.8.1 1.5.5 2 .8 1 2 1 1.9 1.1zM32.9 42.8c0-.1-1 .3-2.1-1-.5-.5-.8-1.3-.7-2.2.1-.7.5-1.4 1.2-1.8a3.3 3.3 0 0 1 2.3-.6c.8.2 1.4.7 1.8 1.2.4.7.6 1.4.5 2-.2 1-.6 1.5-1.1 2l-.8.4c-.5.2-.8 0-.8 0l.7-.2c.2 0 .5-.2.7-.5.4-.3.8-1 .9-1.7 0-.5 0-1.2-.5-1.8a2.3 2.3 0 0 0-2-1c-.5 0-1 .2-1.5.5-.5.4-1 1-1 1.6-.1.8.1 1.5.5 2 .8 1 2 1 1.9 1.1zM21.2 42.8c0-.1-1 .3-2.2-1-.4-.5-.8-1.3-.6-2.2 0-.7.5-1.4 1.1-1.8a3.3 3.3 0 0 1 2.3-.6c.8.2 1.5.7 1.8 1.2.5.7.6 1.4.5 2-.1 1-.6 1.5-1 2l-.9.4c-.5.2-.8 0-.8 0l.8-.2c.2 0 .4-.2.7-.5.4-.3.7-1 .9-1.7 0-.5-.1-1.2-.5-1.8a2.3 2.3 0 0 0-2-1c-.6 0-1 .2-1.5.5-.6.4-1 1-1 1.6-.2.8 0 1.5.5 2 .8 1 1.9 1 1.9 1.1z"/>
      <path d="M15.3 42.8c0-.1-1 .3-2.1-1-.5-.5-.8-1.3-.7-2.2.1-.7.5-1.4 1.2-1.8a3.3 3.3 0 0 1 2.3-.6c.8.2 1.4.7 1.8 1.2.4.7.6 1.4.5 2-.2 1-.6 1.5-1 2l-.9.4c-.5.2-.8 0-.8 0l.7-.2c.2 0 .5-.2.7-.5.4-.3.8-1 1-1.7 0-.5-.2-1.2-.6-1.8a2.3 2.3 0 0 0-2-1c-.5 0-1 .2-1.4.5-.6.4-1 1-1 1.6-.2.8 0 1.5.4 2 .9 1 2 1 2 1.1zM50.4 42.8c0-.1-1 .3-2-1-.6-.5-.9-1.3-.8-2.2.1-.7.5-1.4 1.2-1.8a3.3 3.3 0 0 1 2.3-.6c.8.2 1.4.7 1.8 1.2.5.7.6 1.4.5 2-.2 1-.6 1.5-1 2l-.9.4c-.5.2-.8 0-.8 0l.7-.2c.3 0 .5-.2.8-.5.3-.3.7-1 .8-1.7.1-.5 0-1.2-.4-1.8a2.3 2.3 0 0 0-2-1c-.6 0-1.1.2-1.5.5-.6.4-1 1-1 1.6-.2.8 0 1.5.4 2 .9 1 2 1 2 1.1z"/>
      <path d="M56.2 42.8c0-.1-1 .3-2-1-.6-.5-.9-1.3-.8-2.2.1-.7.5-1.4 1.2-1.8a3.3 3.3 0 0 1 2.3-.6c.8.2 1.4.7 1.8 1.2.5.7.6 1.4.5 2-.2 1-.6 1.5-1 2l-.9.4c-.5.2-.8 0-.8 0l.7-.2c.3 0 .5-.2.7-.5.4-.3.8-1 1-1.7 0-.5-.1-1.2-.5-1.8a2.3 2.3 0 0 0-2-1c-.6 0-1.1.2-1.5.5-.6.4-1 1-1 1.6-.2.8 0 1.5.4 2 .9 1 2 1 2 1.1zM27 42.8c0-.1-1 .3-2-1-.5-.5-.9-1.3-.7-2.2 0-.7.5-1.4 1.1-1.8a3.3 3.3 0 0 1 2.3-.6c.8.2 1.5.7 1.8 1.2.5.7.6 1.4.5 2-.1 1-.6 1.5-1 2l-.9.4c-.5.2-.8 0-.8 0l.8-.2c.2 0 .4-.2.7-.5.4-.3.7-1 .9-1.7 0-.5-.1-1.2-.5-1.8a2.3 2.3 0 0 0-2-1c-.6 0-1 .2-1.5.5-.6.4-1 1-1 1.6-.2.8 0 1.5.5 2 .8 1 1.9 1 1.9 1.1z"/>
    </g>
  </g>
</svg>
