<svg xmlns="http://www.w3.org/2000/svg" width="176" height="240" viewBox="0 0 52.92 63.5">
  <path style="fill:#000;fill-rule:evenodd;stroke:none;stroke-width:.26458332px;stroke-linecap:butt;stroke-linejoin:miter;stroke-opacity:1" d="M16.35 14.02c.05 0 .22.74.77 1.99a11.03 11.03 0 0 0 3.5 4.47 9.33 9.33 0 0 0 6.07 1.8 8.7 8.7 0 0 0 6.53-3.72 10.28 10.28 0 0 0 1.7-7.02 8.18 8.18 0 0 0-1.05-3.14A9.71 9.71 0 0 0 28.5 4a9.04 9.04 0 0 0-3.72-.4c-1.46.16-2.8.69-3.86 1.42a9.8 9.8 0 0 0-2.64 2.76 12.1 12.1 0 0 0-1.48 3.27c-.51 1.82-.38 2.9-.45 2.9-.04.01-.33-1.05.1-2.99.23-.98.64-2.19 1.4-3.44.6-1.03 1.5-2.12 2.7-3a8.96 8.96 0 0 1 4.16-1.6 9.7 9.7 0 0 1 4.03.38 10.33 10.33 0 0 1 5.85 4.7 8.88 8.88 0 0 1 1.2 3.81c.2 2.6-.48 5.17-1.9 7.18a9.4 9.4 0 0 1-7.14 3.97c-2.6.14-4.9-.85-6.46-2.05-2-1.56-3-3.56-3.45-4.8a5.97 5.97 0 0 1-.48-2.1z"/>
  <path d="M20.72 7.92c.03.03-.32.47-.78 1.37a8.15 8.15 0 0 0-.94 4.07 6.86 6.86 0 0 0 1.75 4.3 6.38 6.38 0 0 0 5.12 2.03 7.55 7.55 0 0 0 4.8-2.24A6 6 0 0 0 32 15.41a7.13 7.13 0 0 0 .05-5.09 6.63 6.63 0 0 0-1.47-2.3A6.16 6.16 0 0 0 28 6.43a7.21 7.21 0 0 0-2.8-.25c-1.02.1-1.9.37-2.56.64-1.28.54-1.85 1.1-1.9 1.07-.02-.03.46-.7 1.77-1.34a8.57 8.57 0 0 1 2.63-.8 7.46 7.46 0 0 1 2.99.18c1 .28 2 .82 2.85 1.66.7.68 1.27 1.53 1.65 2.51a7.66 7.66 0 0 1 0 5.57 6.59 6.59 0 0 1-1.66 2.46 8.12 8.12 0 0 1-5.05 2.22 6.97 6.97 0 0 1-7.4-7 7.92 7.92 0 0 1 1.2-4.2 4.1 4.1 0 0 1 1-1.24zM35.9 12.86c.18 0 .32 8.23.32 18.37s-.14 18.37-.32 18.37c-.17 0-.31-8.23-.31-18.37s.14-18.37.31-18.37zM16.33 12.57c.18 0 .32 8.25.32 18.42 0 10.16-.14 18.4-.32 18.4-.17 0-.32-8.24-.32-18.4 0-10.17.15-18.42.32-18.42zM22.04 60.68c.16 0 .3-2.42.3-5.4 0-2.99-.14-5.4-.3-5.4-.16 0-.3 2.41-.3 5.4 0 2.98.14 5.4.3 5.4zm-11.34-.06c0 .17 2.54.31 5.67.32 3.13.02 5.67-.1 5.67-.26s-2.54-.3-5.67-.32c-3.13-.02-5.67.1-5.67.26zm.02-10.75c0 .16 2.53.3 5.66.3 3.12 0 5.66-.14 5.66-.3 0-.16-2.54-.29-5.66-.29-3.13 0-5.66.13-5.66.3zm-.02 10.75c.17 0 .3-2.4.3-5.37s-.12-5.38-.28-5.38c-.17 0-.3 2.41-.3 5.38 0 2.97.12 5.37.28 5.37z" style="fill:#000;fill-rule:evenodd;stroke:none;stroke-width:.26458332px;stroke-linecap:butt;stroke-linejoin:miter;stroke-opacity:1"/>
  <path d="M41.56 60.68c.16 0 .3-2.42.3-5.4 0-2.99-.14-5.4-.3-5.4-.16 0-.3 2.41-.3 5.4 0 2.98.14 5.4.3 5.4zm-11.34-.06c0 .17 2.54.31 5.67.32 3.13.02 5.67-.1 5.67-.26s-2.54-.3-5.67-.32c-3.13-.02-5.67.1-5.67.26zm.01-10.75c0 .16 2.54.3 5.67.3 3.12 0 5.66-.14 5.66-.3 0-.16-2.54-.29-5.66-.29-3.13 0-5.67.13-5.67.3zm0 10.75c.15 0 .29-2.4.3-5.37 0-2.97-.13-5.38-.3-5.38-.16 0-.3 2.41-.3 5.38 0 2.97.13 5.37.3 5.37z" style="fill:#000;fill-rule:evenodd;stroke:none;stroke-width:.26458332px;stroke-linecap:butt;stroke-linejoin:miter;stroke-opacity:1"/>
</svg>
