<svg xmlns="http://www.w3.org/2000/svg" width="150" height="220" viewBox="0 0 39.687 58.208">
  <path d="M18.006 35.305c.123 0 .16 9.308.11 21.734.943-.009 1.927-.015 2.942-.018v-.017c0-8.56.015-16.266.038-21.617-1.886.061-3.07-.03-3.07-.174 0-.142 1.192-.235 3.22-.173.023 5.41.038 13.483.038 22.489v.017c-1.171.003-2.308.004-3.388.002-.05-12.859-.013-22.243.11-22.243z" fill-rule="evenodd"/>
  <path d="M19.162 35.606c0-.062 5.329.59 10.803-4.318 2.537-2.275 4.911-6.11 4.894-10.717-.01-3.677-1.531-7.73-4.684-10.573-2.453-2.217-5.75-3.662-9.288-3.977a16.25 16.25 0 0 0-1.433-.064c-3.874-.005-7.477 1.915-9.911 4.523C6.708 13.52 5.34 17.422 5.33 20.98a13.928 13.928 0 0 0 1.358 6.057c.904 1.882 2.16 3.409 3.432 4.573 4.6 4.196 8.91 3.953 8.91 4.01 0-.197-3.99.79-9.113-3.785-1.312-1.169-2.613-2.714-3.56-4.637a14.239 14.239 0 0 1-1.445-6.218c-.01-3.664 1.372-7.68 4.285-10.823 2.503-2.703 6.219-4.686 10.257-4.691.49 0 .983.021 1.476.065 3.646.323 7.035 1.817 9.566 4.111 3.256 2.957 4.803 7.135 4.793 10.928-.017 4.76-2.484 8.665-5.106 10.962-6.212 5.44-11.021 3.435-11.021 4.073z" fill-rule="evenodd"/>
  <path d="M19.237 34.402c0-.05 4.903.558 9.946-3.956 2.337-2.093 4.525-5.623 4.512-9.867-.008-3.388-1.408-7.121-4.313-9.742-2.26-2.043-5.296-3.375-8.556-3.665-.44-.039-.881-.058-1.32-.058-3.572-.005-6.891 1.764-9.133 4.168-2.611 2.8-3.87 6.395-3.878 9.674a12.823 12.823 0 0 0 1.255 5.578c.833 1.732 1.99 3.137 3.162 4.208 4.236 3.858 8.204 3.628 8.204 3.673 0-.185-3.666.71-8.366-3.493-1.204-1.074-2.397-2.494-3.265-4.26a13.072 13.072 0 0 1-1.323-5.706c-.009-3.363 1.261-7.049 3.935-9.931 2.297-2.48 5.706-4.3 9.409-4.304.45 0 .902.02 1.354.06 3.346.297 6.456 1.668 8.778 3.772 2.988 2.712 4.408 6.545 4.4 10.026-.013 4.367-2.276 7.953-4.682 10.063-5.699 5-10.119 3.167-10.119 3.76z" fill-rule="evenodd"/>
  <g aria-label="physics aside" style="line-height:125%;-inkscape-font-specification:'GFS Artemisia, Normal';font-variant-ligatures:normal;font-variant-caps:normal;font-variant-numeric:normal;font-feature-settings:normal;text-align:start" font-weight="400" font-size="16.32" font-family="GFS Artemisia" letter-spacing="0" word-spacing="0" stroke-width=".408">
    <path d="M10.92 14.913c0-1.215-.669-2.078-1.456-2.203-.686-.108-.858.248-1.044.474l-.736 1.762c-.084.079-.067.044-.176 1.479 0 .642-.042 1.904-.085 2.082.161-.045.635.056.745.109-.025-.585-.025-.603-.025-.62v-.062l-.008-1.454c.304.339.575.505.93.561 1.228.194 1.855-1.063 1.855-2.128zm-.754.163c0 1.602-.795 1.723-1.092 1.676-.482-.077-.94-.572-.94-.774v-2.342c.06-.343.585-.49.906-.438 1.076.17 1.126 1.666 1.126 1.878zM16.1 16.763l-.22-.15c-.035.136-.246.878-.67.802-.296-.056-.279-.176-.211-1.416.11-1.814.127-2.463-.821-2.534-.559-.035-1.372.61-1.583.912-.009-.169 0-2.774.084-3.148-.347.077-1.075-.1-1.202-.146v.246c.203.024.373.095.424.226.059.194.076 2.39.067 3.022-.008.633-.05 2.59-.093 2.768.17-.044.635.056.754.11-.043-.834-.043-1.697-.043-2.754 0 0 .813-.998 1.54-.663.179.081.255.446.213 1.407-.034.876-.195 1.704.042 2.156.144.251.44.351.6.368.162.016.661.157 1.118-1.206zM20.323 15.01c-.076-.628-.559-.678-.618-.679-.262.003-.449.132-.457.13-.008 0 .313.288.262.764-.084.929-.61 2.184-.88 2.723-.372-1.31-.982-3.273-1.117-3.902-.348.05-1.16-.078-1.27-.122l-.009.254c.136.022.424.04.618.389.288.52 1.363 4.01 1.363 4.01 0 .018-.27.468-.448.704-.085.11-.263.267-.407.27-.17.009-.313-.04-.406-.178-.136-.189-.178-.337-.212-.588 0 0-.626.209-.448.739.11.352.347.556.592.613.559.132.906-.288 1.388-1.013.153-.222.525-.86.847-1.557.55-1.154 1.261-2.098 1.202-2.557zM23.918 18.195c0-.546-.288-.953-.737-1.253-.508-.344-1.49-.782-1.515-1.358-.025-.435.28-.66.931-.522.373.077.847.504.914 1.246l.22.034-.042-1.353-.178-.029c.009.002-.017.165-.093.153-.152-.024-.423-.234-.812-.314-.974-.207-1.609.142-1.609.864-.008.72.584 1.132 1.202 1.52l.66.474c.297.188.44.457.44.757 0 .52-.389.572-.693.524-.872-.138-1.287-.952-1.355-1.456l-.203-.041.085 1.457.177.029c.051-.072.068-.113.17-.088.27.087.762.27 1.16.342.626.108 1.278-.176 1.278-.986zM25.911 13.861a.64.64 0 0 0-.508-.609c-.279-.044-.508.158-.508.448a.63.63 0 0 0 .508.6.435.435 0 0 0 .508-.439zm.99 4.586l-.22-.105c-.169.475-.372.865-.668.792-.423-.111-.33-.669-.33-1.303 0-.95.101-1.965.152-2.556-.347.069-1.092-.084-1.193-.136v.256c.194.03.355.109.406.24.06.186-.009.976-.026 1.599-.016.825 0 1.453.119 1.85.127.425.415.55.669.59.254.04.736-.024 1.092-1.227zM30.747 18.994l-.135-.1c-.296.42-.627.754-1.261.654-.737-.117-1.346-.9-1.346-1.966 0-1.356.812-1.473 1.134-1.449.322.016.635.224.694.489.06.256-.05.379-.127.464.076.065.212.262.474.295.364.04.44-.441.296-.763-.11-.255-.355-.602-1.176-.741-.957-.16-1.981.461-1.981 1.967 0 1.453.948 2.201 1.66 2.314.71.113 1.286-.192 1.768-1.164zM33.978 20.03c0-.546-.014-1.152-.463-1.452-.508-.344-1.49-.782-1.515-1.358-.026-.436.279-.66.93-.522.642 1.05.753.756.715.406-.03-.286-.075-.543-.706-.669-.973-.207-1.608.142-1.608.864-.009.72.584 1.131 1.202 1.52l.66.474c.297.188.44.457.44.757 0 .52-.389.572-.694.524-.872-.138-1.286-.952-1.354-1.456l-.203-.041.084 1.457.178.029c.05-.072.068-.113.17-.088.27.087.764.267 1.162.339 1.675-.018.984-.193 1.002-.784zM14.601 27.832l-.228-.115s-.102.6-.398.553c-.33-.052-.237-.698-.237-1.332l.008-1.064s.051-.688-.313-1.124c-.28-.335-.643-.507-1.202-.586-.914-.136-1.312.17-1.43.416-.144.294.008.767.363.841.28.062.517-.077.585-.198-.068-.099-.237-.134-.204-.42.017-.27.271-.423.703-.355.423.067.838.344.83.845l-.009.553c-1.93.038-2.573.508-2.556 1.427.008.75.533 1.088.99 1.16.466.074 1.194-.154 1.575-.49.008.512.211.817.736.856.347.038.643-.188.787-.967zm-1.532-1.766v1.594c-.203.223-.931.32-1.202.25-.33-.079-.626-.337-.593-.816v-.018c.026-.304.271-.846 1.795-1.01zM18.048 28.272c0-.546-.288-.952-.736-1.252-.508-.345-1.49-.782-1.516-1.359-.025-.435.28-.66.932-.521.372.076.846.503.914 1.245l.22.035-.042-1.354-.178-.028c.008.001-.017.164-.093.152-.153-.024-.424-.234-.813-.313-.974-.207-1.608.141-1.608.863-.009.721.584 1.132 1.202 1.52l.66.475c.296.187.44.457.44.756 0 .52-.39.573-.694.524-.872-.138-1.287-.952-1.354-1.456l-.204-.04.085 1.457.178.028c.05-.071.068-.113.17-.088.27.087.761.27 1.159.342.626.108 1.278-.176 1.278-.986zM20.042 23.938a.64.64 0 0 0-.508-.608c-.28-.044-.508.157-.508.448a.63.63 0 0 0 .508.6.435.435 0 0 0 .508-.44zm.99 4.586l-.22-.105c-.17.475-.372.866-.669.792-.423-.11-.33-.668-.33-1.302 0-.951.102-1.965.153-2.556-.348.068-1.092-.085-1.194-.136v.255c.195.03.355.11.406.24.06.186-.008.977-.025 1.599-.017.825 0 1.453.118 1.85.127.425.415.55.67.59.253.04.736-.024 1.091-1.227zM25.817 29.616l-.135-.118c-.27.424-.432.592-.584.595-.136.004-.22-.132-.229-.248-.101-1.17-.034-3.721.11-5.653-.355.058-1.083-.092-1.202-.146v.255c.203.032.322.086.373.217.067.196.152 1.486.11 2.113-.297-.452-.601-.632-.982-.692-.99-.157-1.829.776-1.829 1.982 0 1.876 1.262 2.27 1.609 2.333.66.113.999-.212 1.21-.627-.008.315-.05.854.525.937.373.05.796-.332 1.024-.948zm-1.616-2.395c.16 2.456-.314 2.618-.78 2.589-.575-.03-1.21-.712-1.21-2.076 0-1.25.593-1.606 1.092-1.527.415.066.855.347.898 1.014zM29.783 29.778l-.144-.085c-.203.311-.584.876-1.372.752-.584-.093-1.371-.587-1.405-2.23l2.751.435c-.093-1.221-.72-1.804-1.557-1.937-.711-.113-1.786.29-1.803 1.986-.009 1.31.677 2.159 1.659 2.314 1.27.201 1.786-.958 1.87-1.235zm-1.067-1.56l-1.828-.29c.143-.787.49-.988.973-.911.703.11.787.74.855 1.2z" style="-inkscape-font-specification:'GFS Artemisia, Normal';font-variant-ligatures:normal;font-variant-caps:normal;font-variant-numeric:normal;font-feature-settings:normal;text-align:start"/>
  </g>
</svg>
