<svg xmlns="http://www.w3.org/2000/svg" width="206" height="220" viewBox="0 0 92.6 66.15">
  <g fill-rule="evenodd">
    <path d="M2.8 56.83c0-.41 19.94-.75 44.5-.75s44.5.34 44.5.75c0 .4-19.94.74-44.5.74s-44.5-.33-44.5-.74zM1.87 15.04c.31 0 .63 9.29.7 20.73.09 11.44-.1 20.73-.43 20.73-.31 0-.63-9.28-.7-20.72-.09-11.45.1-20.73.43-20.74z"/>
    <path d="M1.93 14.46c.15-.29 16.06 8.8 35.52 20.29 19.46 11.48 35.13 21.04 34.98 21.33-.16.29-16.07-8.8-35.53-20.28C17.44 24.3 1.77 14.75 1.93 14.46z"/>
    <path d="M16.02 22.17c.1-.17-1.34-.2-2.1-2.3a3.78 3.78 0 0 1 1.35-4.26 3.99 3.99 0 0 1 4.23-.2c.85.5 1.45 1.31 1.73 2.19.32 1.05.1 2.13-.4 2.92a4.28 4.28 0 0 1-2.2 1.88c-.74.24-1.42.16-1.81.08-.42-.09-.62-.2-.61-.22 0-.02.23.03.63.08a3.7 3.7 0 0 0 1.7-.2 4.1 4.1 0 0 0 1.99-1.8c.42-.72.6-1.7.3-2.61a3.58 3.58 0 0 0-2-2.17 3.66 3.66 0 0 0-3.33.38 3.51 3.51 0 0 0-1.3 3.83c.56 1.79 1.85 2.35 1.82 2.4z"/>
  </g>
</svg>
