<svg xmlns="http://www.w3.org/2000/svg" width="130" height="130" viewBox="0 0 34.396 34.396">
  <g fill-rule="evenodd">
    <path d="M15.607 31.479c.014-.076 3.74.797 8.184-1.87 2.641-1.59 5.137-4.546 5.9-8.69.546-2.998.212-6.636-1.89-9.712-1.7-2.499-4.665-4.522-8.086-5.125-.235-.042-.47-.077-.707-.104-3.074-.356-6.138.53-8.482 2.007a12.792 12.792 0 0 0-5.704 8.309c-.747 3.856.135 7.338 1.933 9.822 3.667 5.102 8.866 5.278 8.852 5.363.154-.93-4.694.94-9.264-5.126-1.918-2.563-2.915-6.182-2.17-10.182a13.273 13.273 0 0 1 5.914-8.732c2.459-1.573 5.69-2.505 8.985-2.132.254.03.507.066.758.11 3.659.653 6.788 2.799 8.587 5.466 2.197 3.273 2.519 7.056 1.909 10.157-.836 4.295-3.5 7.32-6.276 8.915-5.107 2.94-8.407 1.336-8.443 1.524z"/>
    <path d="M.257 31.973c-.002-.12 7.548-.246 16.85-.227 9.303.02 16.852.135 16.852.227 0 .119-7.55.175-16.852.156-9.3-.02-16.85-.064-16.85-.156z"/>
  </g>
</svg>
