<svg xmlns="http://www.w3.org/2000/svg" width="230" height="250" viewBox="0 0 66.15 66.15">
  <path style="fill:#000;fill-rule:evenodd;stroke:none;stroke-width:.26458332px;stroke-linecap:butt;stroke-linejoin:miter;stroke-opacity:1" d="M11.2 27.92c.09 0 .17 1 .21 2.57a16.36 16.36 0 0 0 1.26 5.13 17.4 17.4 0 0 0 2.8 4.19c1.04 1.04 1.68 1.76 1.63 1.85-.05.1-.79-.45-1.92-1.4a14.29 14.29 0 0 1-3.12-4.37c-.87-1.96-1.1-4-1.13-5.42.08-1.58.17-2.56.27-2.55z"/>
  <path style="fill:#000;fill-rule:evenodd;stroke:none;stroke-width:.26458332px;stroke-linecap:butt;stroke-linejoin:miter;stroke-opacity:1" d="M11.2 27.92c-.04-.14 1.09-.57 2.52-.96 1.44-.39 2.64-.6 2.68-.46.04.14-1.1.56-2.53.96-1.44.39-2.63.6-2.67.46zM17.03 41.59c-.07-.16.95-.96 2.27-1.8 1.33-.83 2.47-1.38 2.54-1.23.07.16-.95.96-2.27 1.8-1.33.83-2.47 1.38-2.54 1.23z"/>
  <path d="M16.24 21.5c.1 0 .27 1.37.45 3.56a28.35 28.35 0 0 0 1.77 7.03c1 2.4 2.34 4.27 3.33 5.54 1.2 1.35 1.94 2.27 1.9 2.42-.06.13-.88-.55-2.17-1.76a19.59 19.59 0 0 1-3.68-5.75 25.14 25.14 0 0 1-1.66-7.44c-.06-2.22-.04-3.6.06-3.6z" style="fill:#000;fill-rule:evenodd;stroke:none;stroke-width:.26458332px;stroke-linecap:butt;stroke-linejoin:miter;stroke-opacity:1"/>
  <path style="fill:#000;fill-rule:evenodd;stroke:none;stroke-width:.26458332px;stroke-linecap:butt;stroke-linejoin:miter;stroke-opacity:1" d="M16 22.22c-.09-.2 4.37-2.11 9.95-4.27 5.57-2.16 10.16-3.74 10.24-3.54.08.2-4.38 2.12-9.96 4.28-5.57 2.15-10.16 3.74-10.24 3.53z"/>
  <path d="M43.6 31.66c-.08 0-.32-1.3-.63-3.39a31.05 31.05 0 0 0-1.96-6.6c-1-2.24-2.24-3.94-3.14-5.1-1.07-1.2-1.74-2.04-1.72-2.18.03-.13.76.47 1.9 1.54a19.26 19.26 0 0 1 3.43 5.26 27.65 27.65 0 0 1 1.9 7.02c.21 2.12.3 3.44.22 3.45z" style="fill:#000;fill-rule:evenodd;stroke:none;stroke-width:.26458332px;stroke-linecap:butt;stroke-linejoin:miter;stroke-opacity:1"/>
  <path style="fill:#000;fill-rule:evenodd;stroke:none;stroke-width:.26458332px;stroke-linecap:butt;stroke-linejoin:miter;stroke-opacity:1" d="M42.51 6.56c.06.05-.57.86-1.12 2.5-.33.97-.6 2.17-.72 3.64a19.15 19.15 0 0 0 1.85 9.68c1.63 3.48 3.7 6.01 5.77 7.79a16.3 16.3 0 0 0 2.73 1.94c1.21.66 1.98.81 1.97.88 0 .1-.83.08-2.15-.52-.86-.39-1.84-.96-2.94-1.83a21.85 21.85 0 0 1-6.37-8.48 18.6 18.6 0 0 1-1.5-9.53c.17-1.51.53-2.75.94-3.74.7-1.68 1.48-2.39 1.54-2.33z"/>
  <path style="fill:#000;fill-rule:evenodd;stroke:none;stroke-width:.26458332px;stroke-linecap:butt;stroke-linejoin:miter;stroke-opacity:1" d="M42.08 6.8c.2-.08 2.75 5.7 5.68 12.92 2.94 7.2 5.15 13.13 4.95 13.2-.2.1-2.75-5.7-5.68-12.9C44.1 12.8 41.88 6.87 42.08 6.8z"/>
  <path style="fill:#000;fill-rule:evenodd;stroke:none;stroke-width:.26458332px;stroke-linecap:butt;stroke-linejoin:miter;stroke-opacity:1" d="M46.44 17.1c0-.29 2.43-.14 5.49.17l.08.01c-2.02 2.26-3.69 3.96-3.89 3.76-.2-.21 1.48-1.8 3.6-3.65h-.08c-2.85.06-5.22 0-5.2-.29zM28.68 33.45c.16-.08 4.36 8.52 10.09 20.66l13.53-.54 1.71-.07a2114.88 2114.88 0 0 1-15.9-19.9c-5.81-.04-9.4-.13-9.4-.23s3.6-.19 9.61-.2c4.25 5.34 9.44 12 16.02 20.48.16 0-1.94.13-1.78.12l-14.1.87c-5.91-12.4-9.94-21.11-9.78-21.2zM22.65 19.08c-.2.11-3-5.11-6.6-12.22l3.58-.09c2.7-.06 5.16-.12 7.44-.15 1.13 5.93 1.78 9.98 1.61 10-.17.04-.99-3.94-1.96-9.58a922.77 922.77 0 0 1-10.31.02c3.72 6.72 6.46 11.9 6.24 12.02z"/>
  <path style="fill:#000;fill-rule:evenodd;stroke:none;stroke-width:.26458332px;stroke-linecap:butt;stroke-linejoin:miter;stroke-opacity:1" d="M33.98 33.51c.1-.06 2.93 4.4 6.29 9.98s6 10.16 5.9 10.22c-.12.07-2.94-4.4-6.3-9.98-3.36-5.57-6-10.15-5.9-10.22z"/>
  <path style="fill:#000;fill-rule:evenodd;stroke:none;stroke-width:.26458332px;stroke-linecap:butt;stroke-linejoin:miter;stroke-opacity:1" d="M31.89 40.35c-.02-.12 2.3-.54 5.19-.92 2.87-.4 5.23-.6 5.24-.49.02.13-2.3.54-5.19.93-2.88.38-5.23.6-5.24.48zM35.24 47.09c-.02-.14 2.87-.5 6.43-.82 3.56-.3 6.47-.45 6.48-.3.01.13-2.87.5-6.44.81-3.56.31-6.46.45-6.47.31zM19.14 12.13c0-.1 1.82-.43 4.09-.74a63.3 63.3 0 0 1 3.35-.39c.48-.03.77-.04.78 0 0 .04-.28.11-.75.2-.74.15-1.96.35-3.34.54-2.26.3-4.11.48-4.13.39zM21.6 17.36c-.03-.1 1.41-.63 3.22-1.2 1.81-.56 3.3-.95 3.33-.86.03.1-1.42.63-3.22 1.2-1.81.56-3.3.95-3.34.86z"/>
  <path style="fill:#000;fill-rule:evenodd;stroke:none;stroke-width:.26458332px;stroke-linecap:butt;stroke-linejoin:miter;stroke-opacity:1" d="M22.07 7.06c.07-.02.96 2.4 2 5.4 1.05 3 1.84 5.46 1.77 5.49-.07.02-.97-2.4-2-5.4-1.05-3.01-1.84-5.47-1.77-5.49zM23.7 40.05c-.05-.16 1.4-.89 3.26-1.63 1.86-.74 3.42-1.21 3.48-1.05.06.15-1.4.88-3.25 1.62-1.86.74-3.42 1.21-3.48 1.06zM43.6 31.66c.06.14-.99.74-2.35 1.34-1.36.6-2.51.97-2.58.83-.06-.15 1-.74 2.36-1.34 1.35-.6 2.5-.97 2.57-.83z"/>
</svg>
