<?xml version="1.0" encoding="UTF-8" standalone="no"?>
<svg
   xmlns:dc="http://purl.org/dc/elements/1.1/"
   xmlns:cc="http://creativecommons.org/ns#"
   xmlns:rdf="http://www.w3.org/1999/02/22-rdf-syntax-ns#"
   xmlns:svg="http://www.w3.org/2000/svg"
   xmlns="http://www.w3.org/2000/svg"
   xmlns:sodipodi="http://sodipodi.sourceforge.net/DTD/sodipodi-0.dtd"
   xmlns:inkscape="http://www.inkscape.org/namespaces/inkscape"
   width="220"
   height="140"
   viewBox="0 0 58.21 37.04"
   version="1.1"
   id="svg18"
   sodipodi:docname="sideviewmirror1.svg"
   inkscape:version="0.92.4 (unknown)">
  <metadata
     id="metadata24">
    <rdf:RDF>
      <cc:Work
         rdf:about="">
        <dc:format>image/svg+xml</dc:format>
        <dc:type
           rdf:resource="http://purl.org/dc/dcmitype/StillImage" />
      </cc:Work>
    </rdf:RDF>
  </metadata>
  <defs
     id="defs22">
    <inkscape:path-effect
       effect="skeletal"
       id="path-effect836"
       is_visible="true"
       pattern="M 0,5 C 0,2.24 2.24,0 5,0 12.127055,0.73654225 10.263073,9.8398608 5,10 2.24,10 0,7.76 0,5 Z"
       copytype="single_stretched"
       prop_scale="0.085319288"
       scale_y_rel="false"
       spacing="0"
       normal_offset="0"
       tang_offset="0"
       prop_units="false"
       vertical_pattern="false"
       fuse_tolerance="0"
       pattern-nodetypes="sccs" />
  </defs>
  <sodipodi:namedview
     pagecolor="#ffffff"
     bordercolor="#666666"
     borderopacity="1"
     objecttolerance="10"
     gridtolerance="10"
     guidetolerance="10"
     inkscape:pageopacity="0"
     inkscape:pageshadow="2"
     inkscape:window-width="1920"
     inkscape:window-height="1056"
     id="namedview20"
     showgrid="false"
     inkscape:zoom="44.620028"
     inkscape:cx="53.275528"
     inkscape:cy="117.57619"
     inkscape:window-x="0"
     inkscape:window-y="24"
     inkscape:window-maximized="1"
     inkscape:current-layer="svg18" />
  <g
     fill-rule="evenodd"
     id="g16">
    <path
       d="M12.7 4.95c.07.07-1.47 1.63-2.45 5a34.06 34.06 0 0 0-1.18 9c-.04 2.79.25 6 1.4 9.13.68 1.74 1.47 3.77 3.22 4.61.7.37 1.47.63 2.29.84 1.37.34 2.85.5 4.26.66 3.84.39 7.57.28 10.94-.05 7.94-.78 12.11-1.65 16.1-3.37a11.45 11.45 0 0 0 2.64-1.5c.24-.19.39-.32.5-.44l.18-.16h.01c.02.02 0 .09-.08.22-.09.14-.23.31-.45.53a9.6 9.6 0 0 1-2.59 1.71c-3.86 1.9-8.33 2.96-16.2 3.81-3.43.38-7.23.51-11.16.12-1.43-.13-2.96-.3-4.43-.68-.87-.22-1.72-.52-2.51-.92-2.12-1.14-3.03-3.33-3.64-5.12a25.24 25.24 0 0 1-1.32-9.41c.13-3.76.66-6.66 1.48-9.11 1.14-3.48 2.78-5.05 2.98-4.87z"
       id="path2" />
    <path
       d="M12.7 4.95c-.11-.2 2.46-1.12 6.97-1.52 3.01-.27 6.77-.3 11.04.29 3.03.4 6.55 1.15 9.58 2.69 1.76.89 3.26 2 4.45 3.35 2.55 2.94 3.77 6.56 4.54 9.29 1.63 5.78 1.41 9.61 1.32 9.61-.11 0-.12-3.83-1.84-9.5-.83-2.68-2.08-6.23-4.54-9.04a13.65 13.65 0 0 0-4.26-3.2c-2.92-1.46-6.37-2.2-9.35-2.65-4.2-.61-7.91-.63-10.9-.44-4.44.3-6.98 1.2-7.02 1.12zM23.92 17.86h.11l.25.08.9.3 3.1 1.16c2.43.94 5.68 2.24 9.23 3.69 3.54 1.44 6.74 2.79 9.1 3.8l2.94 1.3.8.4c.1.05.17.09.2.12l.05.04.01.01h-.11a137.32 137.32 0 0 1-4.25-1.54 523.64 523.64 0 0 1-18.33-7.49 126.2 126.2 0 0 1-2.94-1.3c-.35-.17-.63-.3-.8-.4a2.41 2.41 0 0 1-.25-.15l-.01-.02zM11.68 7.7c0-.03 3.55.27 6.43 4.33a22.53 22.53 0 0 1 3.24 7.12 62.91 62.91 0 0 1 1.98 11.3c.08 1.1.1 1.94.1 2.55 0 .3-.02.52-.04.68 0 .07-.02.13-.03.17-.03.04-.03.06-.03.07 0 0 0-.03-.04-.07l-.04-.17-.1-.67c-.09-.7-.16-1.33-.33-2.5a97.44 97.44 0 0 0-2.25-11.18 23.73 23.73 0 0 0-3.04-6.99c-2.45-3.63-5.9-4.5-5.85-4.63zM23.95 19.39c.13.18.19.36.13.4-.06.04-.21-.08-.34-.26-.13-.19-.2-.37-.13-.4.05-.04.2.07.34.26zM25.4 21.6c.15.25.21.48.14.53-.08.05-.26-.11-.42-.36-.15-.24-.22-.48-.14-.53.07-.04.26.12.41.36zM27.15 24.27c.2.28.27.55.18.6-.1.06-.32-.12-.51-.4s-.27-.55-.18-.6c.1-.06.32.12.51.4zM30.12 25.66c.11 0 .2.42.2.93 0 .52-.09.94-.2.94-.11 0-.2-.42-.2-.94 0-.51.09-.93.2-.93zM35.81 25.66c.08 0 .13.42.13.93 0 .52-.05.94-.13.94-.07 0-.13-.42-.13-.94 0-.51.06-.93.13-.93z"
       id="path4" />
    <path
       d="M30.12 25.66c0-.1 1.27-.17 2.83-.17s2.83.07 2.83.17c0 .09-1.27.17-2.83.17s-2.83-.08-2.83-.17zM30.04 27.5c0 .11-.44.2-.98.2-.53 0-.97-.09-.97-.2 0-.1.44-.18.97-.18.54 0 .98.09.98.19zM37.81 27.5c0 .09-.44.16-.97.16-.54 0-.98-.07-.98-.16s.44-.16.98-.16c.53 0 .97.07.97.16z"
       id="path6" />
    <path
       d="M37.81 27.5c.08 0 .14.48.14 1.08 0 .6-.06 1.08-.14 1.08-.08 0-.14-.48-.14-1.08 0-.6.06-1.08.14-1.08zM28 27.57c.1 0 .18.49.18 1.09 0 .6-.08 1.08-.18 1.08-.1 0-.17-.49-.17-1.08 0-.6.08-1.09.17-1.09zM28.1 29.75c0-.1 2.17-.18 4.85-.18 2.67 0 4.84.08 4.84.18 0 .1-2.17.19-4.84.19-2.68 0-4.85-.09-4.85-.19z"
       id="path8" />
    <path
       d="M29.99 29.8c.06 0 .1.17.1.37 0 .2-.04.36-.1.36-.06 0-.1-.16-.1-.36 0-.2.04-.36.1-.36zM31.5 29.8c.05 0 .09.17.09.37 0 .2-.04.36-.1.36-.05 0-.1-.16-.1-.36 0-.2.05-.36.1-.36zM30.04 30.57c0-.05.32-.08.71-.08.4 0 .71.04.71.09 0 .04-.32.07-.71.07-.4 0-.72-.04-.71-.08zM34.3 29.87c.05 0 .1.16.1.36 0 .2-.05.37-.1.37-.06 0-.11-.17-.11-.37 0-.2.05-.36.1-.36zM35.8 29.87c.06 0 .1.16.1.36 0 .2-.04.37-.1.37-.06 0-.1-.17-.1-.37 0-.2.04-.36.1-.36z"
       id="path10" />
    <path
       d="M34.34 30.6c0-.05.32-.09.71-.08.4 0 .72.04.72.08s-.32.08-.72.08c-.4 0-.71-.04-.71-.09zM29.7 28.4c.01 0 0 .23.2.46.1.11.27.2.47.2.14-.01.3-.07.4-.19a.61.61 0 0 0-.41-1 .64.64 0 0 0-.45.16c-.19.18-.2.36-.22.36 0 0-.08-.18.15-.43.1-.13.29-.24.52-.24.19 0 .4.07.55.25a.77.77 0 0 1 0 1.02.72.72 0 0 1-.54.22.7.7 0 0 1-.55-.27c-.24-.33-.1-.55-.13-.55zM34.76 28.37c.02 0 0 .24.2.48.1.1.27.2.47.2.15-.01.32-.07.42-.19a.62.62 0 0 0 0-.82.6.6 0 0 0-.43-.2.64.64 0 0 0-.45.16c-.19.18-.2.37-.21.37 0 0-.07-.19.15-.43.1-.12.29-.23.51-.23.2 0 .4.07.54.24a.75.75 0 0 1 0 1 .7.7 0 0 1-.53.22.7.7 0 0 1-.54-.26c-.23-.32-.1-.54-.13-.54zM30.9 26.06h.02l.02.01.03.04.05.15c.02.13.03.28.03.47-.01.38-.07.68-.14.68s-.12-.3-.1-.68c0-.18.01-.35.03-.47 0-.06.02-.11.03-.14l.02-.04v-.01h.02zM35.13 26.06h.01l.02.01.03.04.04.15c.03.13.04.28.04.47-.01.38-.08.68-.14.68-.07 0-.12-.3-.1-.68 0-.18.01-.35.03-.47 0-.06.02-.11.03-.14l.02-.04v-.01h.02z"
       id="path12" />
    <path
       d="M30.94 26.07c0-.06.93-.1 2.08-.1 1.16 0 2.09.05 2.09.1 0 .06-.94.1-2.09.1s-2.08-.04-2.08-.1zM30.94 27.4c0-.06.93-.1 2.08-.1 1.16 0 2.09.05 2.09.1 0 .06-.94.1-2.09.1s-2.08-.05-2.08-.1z"
       id="path14" />
  </g>
  <path
     style="fill:#000000;fill-rule:evenodd;stroke:none;stroke-width:0.26459092px;stroke-linecap:butt;stroke-linejoin:miter;stroke-opacity:1"
     d="m 9.618247,5.0556521 c 0.079041,0.110658 -1.8849131,1.806375 -3.601013,5.4256729 -1.015955,2.176639 -2.0489359,5.115639 -2.0353008,8.296042 4e-7,0 0,10e-7 0,10e-7 0.00244,0.619588 0.024938,1.250169 0.071216,1.887181 0.2535314,3.619475 1.2028712,6.36856 2.3058311,8.397554 1.239575,2.277318 2.5867037,3.608071 3.4368209,4.344766 0.8437638,0.73119 1.3288748,1.010807 1.1512068,1.010636 C 10.779058,34.417344 8.028836,33.311542 5.74545,29.407013 4.4468856,27.18898 3.460474,24.299801 3.1996575,20.72638 c -0.047599,-0.658835 -0.068189,-1.310011 -0.065748,-1.949012 10e-8,0 2e-7,-10e-7 3e-7,-10e-7 C 3.1475888,15.399764 4.279872,12.379261 5.415553,10.185146 7.3119321,6.4696931 9.4167321,4.7735313 9.618247,5.0556521 Z"
     id="path834"
     inkscape:connector-curvature="0"
     inkscape:path-effect="#path-effect836"
     inkscape:original-d="M 9.618247,5.0556521 C 7.2937386,6.7160151 3.5579213,12.894939 3.5579213,18.777368 c 0,8.871084 4.1729328,13.803041 7.4004757,15.654855"
     transform="translate(1.9449969,-0.0948779)"
     sodipodi:nodetypes="csc" />
</svg>
