<?xml version="1.0" encoding="UTF-8" standalone="no"?>
<svg
   xmlns:dc="http://purl.org/dc/elements/1.1/"
   xmlns:cc="http://creativecommons.org/ns#"
   xmlns:rdf="http://www.w3.org/1999/02/22-rdf-syntax-ns#"
   xmlns:svg="http://www.w3.org/2000/svg"
   xmlns="http://www.w3.org/2000/svg"
   xmlns:sodipodi="http://sodipodi.sourceforge.net/DTD/sodipodi-0.dtd"
   xmlns:inkscape="http://www.inkscape.org/namespaces/inkscape"
   width="165"
   height="250"
   viewBox="0 0 66.1 79.4"
   version="1.1"
   id="svg14"
   sodipodi:docname="sodacan.svg"
   inkscape:version="0.92.4 (unknown)">
  <metadata
     id="metadata20">
    <rdf:RDF>
      <cc:Work
         rdf:about="">
        <dc:format>image/svg+xml</dc:format>
        <dc:type
           rdf:resource="http://purl.org/dc/dcmitype/StillImage" />
      </cc:Work>
    </rdf:RDF>
  </metadata>
  <defs
     id="defs18" />
  <sodipodi:namedview
     pagecolor="#ffffff"
     bordercolor="#666666"
     borderopacity="1"
     objecttolerance="10"
     gridtolerance="10"
     guidetolerance="10"
     inkscape:pageopacity="0"
     inkscape:pageshadow="2"
     inkscape:window-width="1920"
     inkscape:window-height="1056"
     id="namedview16"
     showgrid="false"
     showguides="true"
     inkscape:guide-bbox="true"
     inkscape:zoom="2.2815242"
     inkscape:cx="-133.59152"
     inkscape:cy="49.091331"
     inkscape:window-x="0"
     inkscape:window-y="24"
     inkscape:window-maximized="1"
     inkscape:current-layer="g12">
    <sodipodi:guide
       position="-41.087365,207.13731"
       orientation="0,1"
       id="guide827"
       inkscape:locked="false" />
  </sodipodi:namedview>
  <g
     id="g12"
     style="fill-rule:evenodd"
     transform="matrix(-1,0,0,1,65.871054,0)">
    <path
       d="m 34.8,11.1 c 0,0 0.2,-0.5 1.2,-0.8 a 5,5 0 0 1 1.8,-0.1 c 1.4,0 2.8,0.5 4.7,1.3 a 41.3,41.3 0 0 1 19.3,15.8 c 0.9,1.3 1.7,2.7 2.2,4.3 l 0.3,1.8 a 2.4,2.4 0 0 1 -0.5,1.4 c -0.4,0.5 -1,0.8 -1.5,0.9 l -2,-0.1 a 18,18 0 0 1 -4.8,-2 62.4,62.4 0 0 1 -18,-15 c -1.4,-1.7 -2.2,-3 -2.8,-4.3 -0.3,-0.7 -0.5,-1.2 -0.5,-1.7 0,-1 0.5,-1.2 0.5,-1.3 0,0 -0.3,0.5 -0.2,1.2 0,0.5 0.2,1 0.6,1.6 A 62,62 0 0 0 46,26 c 2.8,2.4 6.2,4.8 10,6.8 1.4,0.8 2.9,1.5 4.4,1.8 0.6,0.1 1.1,0.2 1.6,0.1 0.4,0 0.7,-0.2 0.9,-0.5 L 63,34 63.1,33.5 c 0,-0.5 0,-1 -0.2,-1.5 -0.4,-1.4 -1.2,-2.8 -2,-4 A 43,43 0 0 0 42.2,12 C 40.3,11.1 39,10.7 37.6,10.5 a 5,5 0 0 0 -1.7,0 c -0.8,0.2 -1.1,0.6 -1.2,0.5 z"
       id="path2"
       inkscape:connector-curvature="0" />
    <path
       d="m 62.4,36.2 c 0,0 0.1,0.6 -0.4,1.6 -0.3,0.5 -0.6,1 -1.2,1.6 l -1.5,2 A 674.3,674.3 0 0 1 46.6,56.7 1434.1,1434.1 0 0 1 32.6,73.1 L 32,73.8 a 3,3 0 0 1 -1.2,0.7 l -1.7,0.2 c -1.6,0 -3.1,-0.2 -4.6,-0.6 A 32.6,32.6 0 0 1 12.2,67.3 34.6,34.6 0 0 1 2.2,53.3 C 1.9,52.3 1.6,51.2 1.9,49.9 L 2,49.5 2.3,49 l 1,-1.3 3,-4 9.3,-11.5 9.6,-11.4 3.5,-4 1.1,-1.4 0.7,-0.8 c 0.9,-1.1 1.7,-1.7 2.3,-2 l 0.7,-0.2 h 0.2 l -0.2,0.1 -0.6,0.3 c -0.6,0.3 -1.3,0.9 -2.1,2 l -0.7,0.8 -1,1.4 -3.4,4.2 L 16.3,32.7 7,44.2 a 123.6,123.6 0 0 0 -4,5.3 l -0.1,0.4 c 0,0 -0.1,0.1 0,0 -0.3,1 0,2 0.3,3 A 34,34 0 0 0 13,66.4 l 0.2,0.2 A 32,32 0 0 0 25,73 c 1.4,0.4 2.8,0.6 4.2,0.6 0.5,0 1,0 1.4,-0.2 l 0.8,-0.4 0.5,-0.5 a 86.5,86.5 0 0 0 4.5,-5.1 L 46,56.2 55.6,45 59,41.1 l 1.6,-1.9 1.2,-1.5 c 0.5,-0.9 0.6,-1.5 0.6,-1.5 z"
       id="path4"
       inkscape:connector-curvature="0" />
    <path
       d="m 1.4,51.8 c 0,0 -0.1,1.6 0.8,4 0.5,1.4 1.3,2.8 2.4,4.4 A 40.2,40.2 0 0 0 21,73.7 c 1.8,0.7 3.2,1.1 4.6,1.3 2.5,0.4 4,0 4,0 0,0 -1.4,0.7 -4,0.4 a 32.8,32.8 0 0 1 -14.2,-7 38.2,38.2 0 0 1 -7.3,-8 C 3.1,58.8 2.3,57.4 1.8,56 0.9,53.4 1.2,51.8 1.3,51.8 Z M 64.7,33 c -0.1,0 0,-1.5 -1,-3.8 A 50,50 0 0 0 40.3,9.9 C 37.9,9.3 36.5,9.7 36.4,9.7 c 0,0 1.4,-0.6 4,-0.1 A 41,41 0 0 1 54,17.2 c 3,2.6 5.4,5.1 7.4,7.7 1.1,1.5 2,2.9 2.5,4.2 1,2.4 0.7,4 0.7,4 z M 34.8,11.1 c 0.1,0 0.3,1.5 1.7,3.7 a 69.5,69.5 0 0 0 18.3,16.4 c 1.7,1 3.1,1.6 4.4,2.1 2.4,1 3.8,0.8 3.8,0.8 0,0.1 -1.3,0.4 -3.8,-0.5 a 60.6,60.6 0 0 1 -23,-18.7 c -1.4,-2.3 -1.5,-3.8 -1.4,-3.8 z m -9.9,22.1 c 0.8,0.7 1,-4.6 8.6,-5.4 a 13,13 0 0 1 9.3,3 c 2.3,2 4.2,5 4.4,8.4 a 12.4,12.4 0 0 1 -2.9,8.7 13,13 0 0 1 -8.1,4.6 c -3.4,0.4 -6.6,-0.6 -8.9,-2.5 -3,-2.6 -4.6,-5.7 -5,-8.5 -1,-6.3 3,-7.5 2.4,-8 0.1,0.1 -2.6,2.9 -1.7,8 0.5,2.5 2,5.4 5,7.7 2,1.7 5,2.6 8,2.2 a 12,12 0 0 0 8,-5 11,11 0 0 0 -1.8,-14.8 12.3,12.3 0 0 0 -8.6,-3 C 27.4,29 25,33.3 24.9,33.2 Z"
       id="path6"
       inkscape:connector-curvature="0" />
    <path
       d="m 41.587345,47.989698 -2.816291,-1.522663 a 18,18 0 0 1 -6.065247,-6.119868 c -1.537746,-2.606787 -2.090762,-5.196028 -2.225722,-7.310688 -0.134959,-2.11466 0.04192,-3.492598 0.04192,-3.492598 0,0 -0.40004,1.363806 -0.357167,3.517446 a 15.9,15.9 0 0 0 8.407908,13.706827 10.2,10.2 0 0 0 3.014602,1.221544 z"
       id="path8"
       inkscape:connector-curvature="0" />
    <path
       d="m 41.098632,48.630916 c 0,0 -1.416917,-0.268967 -3.382963,-1.065627 a 20.4,20.4 0 0 1 -7.251701,-5.074724 c -1.463201,-1.661037 -2.558042,-3.477992 -3.167583,-5.174594 -1.297041,-3.577384 -0.496969,-6.304999 -0.628038,-6.35811 0,0 -1.062212,2.621394 0.220697,6.421939 a 15,15 0 0 0 3.49355,5.688154 19,19 0 0 0 7.226854,4.759474 11,11 0 0 0 3.489184,0.803488 z"
       id="path831"
       inkscape:connector-curvature="0" />
    <path
       d="m 40.4,19.5 v -1 c 0.2,-0.4 0.6,-0.9 1.2,-1.2 a 4,4 0 0 1 2.5,-0.4 4.6,4.6 0 0 1 2.6,1.6 c 0.8,0.8 1.2,1.8 1.3,2.8 a 3,3 0 0 1 -0.7,2.2 2,2 0 0 1 -1.1,0.6 c -0.7,0.2 -1,0 -1,0 l 1,-0.1 1,-0.7 c 0.3,-0.4 0.5,-1.1 0.4,-2 A 4.6,4.6 0 0 0 46.3,18.6 4.4,4.4 0 0 0 44,17.3 c -0.8,-0.2 -1.7,0 -2.3,0.3 -0.5,0.2 -0.9,0.6 -1,1 -0.3,0.5 -0.3,0.9 -0.3,0.9 z"
       id="path10"
       inkscape:connector-curvature="0" />
  </g>
</svg>
