<svg xmlns="http://www.w3.org/2000/svg" width="110" height="280" viewBox="0 0 44.98 74.08">
  <g fill-rule="evenodd">
    <path d="M25.28 69.15c-.2-.05.8-4.95 2.27-11.13l.23-.95c1.59-6.62 3.05-11.95 3.26-11.9.2.05-.91 5.47-2.5 12.08l-.23.95c-1.5 6.17-2.83 11-3.03 10.95zM8.74 65.28c-.21-.05.91-5.46 2.5-12.08 1.6-6.61 3.05-11.94 3.26-11.9.21.06-.9 5.47-2.5 12.09-1.59 6.61-3.05 11.94-3.26 11.9zM30.77 44.95c-.05.21-3.7-.48-8.14-1.55-4.45-1.07-8.01-2.1-7.96-2.32.05-.2 3.7.49 8.14 1.56 4.45 1.07 8.01 2.1 7.96 2.31zM25.07 69.4c-.05.2-3.7-.49-8.14-1.56-4.44-1.06-8-2.1-7.96-2.31.05-.21 3.7.48 8.15 1.55 4.44 1.07 8 2.1 7.95 2.32zM26.4 73.08c-.25-.06 1.15-6.75 3.16-15.2l.3-1.3c2.18-9.04 4.16-16.33 4.42-16.27.26.07-1.3 7.46-3.47 16.5l-.31 1.3c-2.05 8.43-3.85 15.03-4.1 14.97zM5.85 68.45c-.26-.06 1.3-7.45 3.47-16.5 2.17-9.04 4.14-16.33 4.4-16.27.26.07-1.29 7.46-3.46 16.5C8.08 61.22 6.1 68.5 5.85 68.45zM34.06 40.05c-.07.29-4.58-.55-10.07-1.87s-9.88-2.62-9.81-2.91c.06-.29 4.57.55 10.06 1.87s9.89 2.62 9.82 2.9zM26.14 73.42c-.07.3-4.58-.54-10.06-1.86-5.5-1.32-9.89-2.63-9.82-2.91.07-.3 4.58.55 10.07 1.86 5.49 1.32 9.88 2.63 9.81 2.91zM18.37 69.63c-.05.21-1.17.12-2.5-.2-1.32-.31-2.36-.74-2.31-.95.05-.21 1.17-.13 2.5.2 1.33.31 2.36.74 2.31.95zM19.49 70.41c-.26-.06-.42-.31-.36-.55.06-.25.31-.4.57-.33.26.06.42.3.36.55-.06.25-.31.4-.57.33zM23.67 38.94c-.08.16.77-.07 1.14 1.07.1.39.05.85-.18 1.27-.2.37-.56.65-1 .75a1.76 1.76 0 0 1-1.28-.17 1.63 1.63 0 0 1-.73-.93c-.13-.45-.05-.9.13-1.24.3-.56.83-.81 1.18-.88.37-.06.62.03.68.07l.02.02c0 .01-.01.02-.03.02-.06 0-.32-.02-.62.07-.3.1-.73.36-.96.83a1.32 1.32 0 0 0 .8 1.85c.24.07.5.07.72.02.35-.08.65-.3.8-.56.2-.37.29-.74.21-1.05-.17-.82-.9-1.1-.88-1.14z"/>
    <path d="M24.33 37.17c-.13-.03 1.42-8.16 3.44-18.15C29.8 9.03 31.55.95 31.67.97c.14.03-1.4 8.16-3.43 18.15-2.03 9.99-3.78 18.07-3.9 18.05z"/>
  </g>
</svg>
